<mxfile host="65bd71144e">
    <diagram id="wv-W0qBRLEkhZ6O4Ixdk" name="Page-1">
        <mxGraphModel dx="1653" dy="790" grid="1" gridSize="10" guides="1" tooltips="1" connect="1" arrows="1" fold="1" page="1" pageScale="1" pageWidth="827" pageHeight="1169" math="0" shadow="0">
            <root>
                <mxCell id="0"/>
                <mxCell id="1" parent="0"/>
                <mxCell id="2" value="" style="rounded=1;whiteSpace=wrap;html=1;" parent="1" vertex="1">
                    <mxGeometry x="294" y="90" width="420" height="540" as="geometry"/>
                </mxCell>
                <mxCell id="3" value="kahvinkeittimen puhdistusohjelma" style="text;strokeColor=none;fillColor=none;html=1;fontSize=24;fontStyle=1;verticalAlign=middle;align=center;" parent="1" vertex="1">
                    <mxGeometry x="429" y="176" width="152" height="40" as="geometry"/>
                </mxCell>
                <mxCell id="19" value="" style="shape=table;startSize=0;container=1;collapsible=0;childLayout=tableLayout;" parent="1" vertex="1">
                    <mxGeometry x="310" y="300" width="390" height="250" as="geometry"/>
                </mxCell>
                <mxCell id="131" style="shape=partialRectangle;collapsible=0;dropTarget=0;pointerEvents=0;fillColor=none;top=0;left=0;bottom=0;right=0;points=[[0,0.5],[1,0.5]];portConstraint=eastwest;" parent="19" vertex="1">
                    <mxGeometry width="390" height="35" as="geometry"/>
                </mxCell>
                <mxCell id="132" value="&lt;span style=&quot;font-size: 14px&quot;&gt;Ava kahvinkeitin, laita 4 mittaa pesuainetta 1/2 litraan kuumaa vettä ja varmista että se on suljettu hyvin.&lt;/span&gt;" style="shape=partialRectangle;html=1;whiteSpace=wrap;connectable=0;overflow=hidden;fillColor=none;top=0;left=0;bottom=0;right=0;pointerEvents=1;align=left;" parent="131" vertex="1">
                    <mxGeometry width="390" height="35" as="geometry"/>
                </mxCell>
                <mxCell id="32" style="shape=partialRectangle;collapsible=0;dropTarget=0;pointerEvents=0;fillColor=none;top=0;left=0;bottom=0;right=0;points=[[0,0.5],[1,0.5]];portConstraint=eastwest;" parent="19" vertex="1">
                    <mxGeometry y="35" width="390" height="35" as="geometry"/>
                </mxCell>
                <mxCell id="33" value="Klikka alla oleva buttonin että pääset Palveluun." style="shape=partialRectangle;html=1;whiteSpace=wrap;connectable=0;overflow=hidden;fillColor=none;top=0;left=0;bottom=0;right=0;pointerEvents=1;align=left;" parent="32" vertex="1">
                    <mxGeometry width="390" height="35" as="geometry"/>
                </mxCell>
                <mxCell id="20" value="" style="shape=partialRectangle;collapsible=0;dropTarget=0;pointerEvents=0;fillColor=none;top=0;left=0;bottom=0;right=0;points=[[0,0.5],[1,0.5]];portConstraint=eastwest;" parent="19" vertex="1">
                    <mxGeometry y="70" width="390" height="35" as="geometry"/>
                </mxCell>
                <mxCell id="21" value="&lt;font style=&quot;font-size: 14px&quot;&gt;Valitse puhdistuksen aika.&lt;/font&gt;" style="shape=partialRectangle;html=1;whiteSpace=wrap;connectable=0;overflow=hidden;fillColor=none;top=0;left=0;bottom=0;right=0;pointerEvents=1;align=left;" parent="20" vertex="1">
                    <mxGeometry width="390" height="35" as="geometry"/>
                </mxCell>
                <mxCell id="22" value="" style="shape=partialRectangle;collapsible=0;dropTarget=0;pointerEvents=0;fillColor=none;top=0;left=0;bottom=0;right=0;points=[[0,0.5],[1,0.5]];portConstraint=eastwest;" parent="19" vertex="1">
                    <mxGeometry y="105" width="390" height="39" as="geometry"/>
                </mxCell>
                <mxCell id="23" value="&lt;font style=&quot;font-size: 14px&quot;&gt;Valitse veden lämpötila.&lt;/font&gt;" style="shape=partialRectangle;html=1;whiteSpace=wrap;connectable=0;overflow=hidden;fillColor=none;top=0;left=0;bottom=0;right=0;pointerEvents=1;align=left;" parent="22" vertex="1">
                    <mxGeometry width="390" height="39" as="geometry"/>
                </mxCell>
                <mxCell id="65" style="shape=partialRectangle;collapsible=0;dropTarget=0;pointerEvents=0;fillColor=none;top=0;left=0;bottom=0;right=0;points=[[0,0.5],[1,0.5]];portConstraint=eastwest;" parent="19" vertex="1">
                    <mxGeometry y="144" width="390" height="35" as="geometry"/>
                </mxCell>
                <mxCell id="66" value="&lt;span style=&quot;font-size: 14px&quot;&gt;Klikka Aloita, kun näytössä lukee &quot;cleaning&quot;, palvelun on käynnissä.&lt;/span&gt;" style="shape=partialRectangle;html=1;whiteSpace=wrap;connectable=0;overflow=hidden;fillColor=none;top=0;left=0;bottom=0;right=0;pointerEvents=1;align=left;" parent="65" vertex="1">
                    <mxGeometry width="390" height="35" as="geometry"/>
                </mxCell>
                <mxCell id="67" style="shape=partialRectangle;collapsible=0;dropTarget=0;pointerEvents=0;fillColor=none;top=0;left=0;bottom=0;right=0;points=[[0,0.5],[1,0.5]];portConstraint=eastwest;" parent="19" vertex="1">
                    <mxGeometry y="179" width="390" height="36" as="geometry"/>
                </mxCell>
                <mxCell id="68" value="Kun palvelun on valmis, näytössä lukee &quot;off&quot;." style="shape=partialRectangle;html=1;whiteSpace=wrap;connectable=0;overflow=hidden;fillColor=none;top=0;left=0;bottom=0;right=0;pointerEvents=1;align=left;" parent="67" vertex="1">
                    <mxGeometry width="390" height="36" as="geometry"/>
                </mxCell>
                <mxCell id="24" value="" style="shape=partialRectangle;collapsible=0;dropTarget=0;pointerEvents=0;fillColor=none;top=0;left=0;bottom=0;right=0;points=[[0,0.5],[1,0.5]];portConstraint=eastwest;" parent="19" vertex="1">
                    <mxGeometry y="215" width="390" height="35" as="geometry"/>
                </mxCell>
                <mxCell id="25" value="Voisit nyt käyttää kahvinkeittin ja nautitaan kahvista." style="shape=partialRectangle;html=1;whiteSpace=wrap;connectable=0;overflow=hidden;fillColor=none;top=0;left=0;bottom=0;right=0;pointerEvents=1;align=left;" parent="24" vertex="1">
                    <mxGeometry width="390" height="35" as="geometry"/>
                </mxCell>
                <mxCell id="41" value="" style="shape=image;verticalLabelPosition=bottom;labelBackgroundColor=#ffffff;verticalAlign=top;aspect=fixed;imageAspect=0;image=data:image/jpeg,/9j/4AAQSkZJRgABAQEAYABgAAD/4QAiRXhpZgAATU0AKgAAAAgAAQESAAMAAAABAAEAAAAAAAD/4gKgSUNDX1BST0ZJTEUAAQEAAAKQbGNtcwQwAABtbnRyUkdCIFhZWiAH4wABAAIABQArADhhY3NwQVBQTAAAAAAAAAAAAAAAAAAAAAAAAAAAAAAAAAAA9tYAAQAAAADTLWxjbXMAAAAAAAAAAAAAAAAAAAAAAAAAAAAAAAAAAAAAAAAAAAAAAAAAAAAAAAAAAAAAAAtkZXNjAAABCAAAADhjcHJ0AAABQAAAAE53dHB0AAABkAAAABRjaGFkAAABpAAAACxyWFlaAAAB0AAAABRiWFlaAAAB5AAAABRnWFlaAAAB+AAAABRyVFJDAAACDAAAACBnVFJDAAACLAAAACBiVFJDAAACTAAAACBjaHJtAAACbAAAACRtbHVjAAAAAAAAAAEAAAAMZW5VUwAAABwAAAAcAHMAUgBHAEIAIABiAHUAaQBsAHQALQBpAG4AAG1sdWMAAAAAAAAAAQAAAAxlblVTAAAAMgAAABwATgBvACAAYwBvAHAAeQByAGkAZwBoAHQALAAgAHUAcwBlACAAZgByAGUAZQBsAHkAAAAAWFlaIAAAAAAAAPbWAAEAAAAA0y1zZjMyAAAAAAABDEoAAAXj///zKgAAB5sAAP2H///7ov///aMAAAPYAADAlFhZWiAAAAAAAABvlAAAOO4AAAOQWFlaIAAAAAAAACSdAAAPgwAAtr5YWVogAAAAAAAAYqUAALeQAAAY3nBhcmEAAAAAAAMAAAACZmYAAPKnAAANWQAAE9AAAApbcGFyYQAAAAAAAwAAAAJmZgAA8qcAAA1ZAAAT0AAACltwYXJhAAAAAAADAAAAAmZmAADypwAADVkAABPQAAAKW2Nocm0AAAAAAAMAAAAAo9cAAFR7AABMzQAAmZoAACZmAAAPXP/bAEMAAgEBAgEBAgICAgICAgIDBQMDAwMDBgQEAwUHBgcHBwYHBwgJCwkICAoIBwcKDQoKCwwMDAwHCQ4PDQwOCwwMDP/bAEMBAgICAwMDBgMDBgwIBwgMDAwMDAwMDAwMDAwMDAwMDAwMDAwMDAwMDAwMDAwMDAwMDAwMDAwMDAwMDAwMDAwMDP/AABEIAJQBhwMBIgACEQEDEQH/xAAfAAABBQEBAQEBAQAAAAAAAAAAAQIDBAUGBwgJCgv/xAC1EAACAQMDAgQDBQUEBAAAAX0BAgMABBEFEiExQQYTUWEHInEUMoGRoQgjQrHBFVLR8CQzYnKCCQoWFxgZGiUmJygpKjQ1Njc4OTpDREVGR0hJSlNUVVZXWFlaY2RlZmdoaWpzdHV2d3h5eoOEhYaHiImKkpOUlZaXmJmaoqOkpaanqKmqsrO0tba3uLm6wsPExcbHyMnK0tPU1dbX2Nna4eLj5OXm5+jp6vHy8/T19vf4+fr/xAAfAQADAQEBAQEBAQEBAAAAAAAAAQIDBAUGBwgJCgv/xAC1EQACAQIEBAMEBwUEBAABAncAAQIDEQQFITEGEkFRB2FxEyIygQgUQpGhscEJIzNS8BVictEKFiQ04SXxFxgZGiYnKCkqNTY3ODk6Q0RFRkdISUpTVFVWV1hZWmNkZWZnaGlqc3R1dnd4eXqCg4SFhoeIiYqSk5SVlpeYmZqio6Slpqeoqaqys7S1tre4ubrCw8TFxsfIycrS09TV1tfY2dri4+Tl5ufo6ery8/T19vf4+fr/2gAMAwEAAhEDEQA/AP38ooooAKQjIpajZ8Z5qZNIB4GKilmFurMz7VXkk8frXjX7QX7avhv4JCSxgkGta6g/484JAFgPrLIeF+nU18d/F79qfxp8ZLmWPUNUms7Ficafab4IgM8BtpDNj/ayK/M+K/FLKclk6EX7Wr2i1Zer6HLUxUIadT7h+Iv7XvgH4ZGSLUNegmu4yQbazzcShhwVO3KqQezEV4/4p/4KhaXAzR6L4Z1G7bGVe8uEgU/gpYn8K+NFUKcgAH1AH9OPypQcDHb0r8LzTxuz/EtrCqFGPRbv72efLHVJO0dD6Zuf+Cnvi1zmHw7oUa+kjzMR/L+VRQ/8FPfGO/LaD4dZO4Bmz/Ovmug8mvlZeJnFDd3i5r0tb8hfWq3c+svDn/BUa6jONY8KKys3D2d2VIH+665P4GvUfAX/AAUE+H/i50hvL280G4btqEJRM+zrlcf7xFfn4Bj8aB8owOle9lfjNxHhpJVpKquzX6occZVT11P1k0LxXp/inTY7vTb61vrWQZWa3mWWNgeeqmtCNyVH+NflP4C+JWvfDXVlvNB1W702ZTuYQOTHJ7OucH8a+p/gN/wUft9Ra303xxCtrIxCLqlup8lm/wCmsY5Qn1XcP92v2XhbxmyzMZRw+PXsaj0ve8b+vT5ndTx0JaM+s+/enCqOk63a+INNhvLG5hurW4UPFNC4eOQEZBBFXUGFFfstOpGa5ou68v8AM7OlxaKKK0AKKKKACiiigAooooAKKKKACiiigAooooAKKKKACiiigAooooAKKKKACiiigAooooAKKKKACiiigAooooAKKKKACmE/N3p9QyHBPLccHFTIBtxcLawvJLIqIoLMWbaAB157Yr49/az/AG6bi8u7zw14LuWjhTdHd6qmMyYO1o4j/CoIILnk/wAPrS/t3ftYNJd3ngrw/dskMY26rdxuVPHWBCvIA6sw5/h9a+UAnl/LjbtxwBjGOP0r+a/FLxSmqksoyiVntKX6J/medisU0+SA6WWSWZpJGZpGJZmYksSepJPOT7800LgYxxRRX838zlL33d9fU8zpqFCjLfoBUlnZTaheQ29vFJPcTuESNVJZ3PCqoHXPfPFfZX7NX7AGm6LptrrHjeBdQ1KZRJHp7t+4tAefnA4dvY5Ar6jhTgzMeIa3LgocsVvJ7L/M1pUZVHaJ8Y71GfmU7OGx2PvzRuBGflZT74x/iK/Viw+Gfh7SrIW9voekwQYC+XHaRquPoBivP/jB+xt4K+LFjLs0uDRtT2nyr2wiETI3+0AArj1BGfcV+p47wDx9LDuWFxClNL4Umr+jZ1/2fK10fnODkdc+/rRXWfGP4Naz8DfGM2j6xD90F7e4RT5F1HnqCeQPXuDxXJ4x6/j1r8Nx2CxGEryw+Jjyzjo+n9epwSi4uzDrRiiiuTlW4j1L9nT9qjXvgFrEaxyS3+gSPi50+RzhAeskRP3W7kDrX398NPihpPxb8I2us6JdfarG5TPHDRsOqOOqsD2r8r8Z/nXo37N/7RGpfs/+NVvIWe50i8IXULPcf3iA4Mg7b19euOK/ZvDfxPxGU1Y4DMm5UG7X3cfP07nZhcVKPuyP0wTIX19/WnDpWT4Q8X6f448N2eqaZcpdWN9EJYpFPBBH8/atYdK/ryjWhWgqtJpxeqa2Z7AUUUVsAUUUUAFFFFABRRRQAUUUUAFFFFABRRRQAUUUUAFFFFABRRRQAUUUUAFFFFABRRRQAUUUUAFFFFABRRRQAZrxv9sj49/8KS+Gci2cg/t3WWa1sF6+WcfPKR6KDn3JUdzXsE8uwH6c84wK/Nn9rv4vSfF/43aldRvu03SnbT7IA5VkRiGce7SbznuoFfmPinxa8lyeXsf4lT3V+v4HPianJD1PM5LiSeVpHeR5GYuWZizEk5JJ65JJOfWmgYFAor+JZXnL3n/W54eoVJZWU2o3sNvbxPPcXDhIo1UlncnAUAdc+/Aos7KbUryC3to3muJ3CRRqpLO54CgDrn34r7m/Y5/Y9g+E9jD4i8QxJceJLqMGGJgCunKRnaPWQj7zdjkDivtOC+CcXxFilToLkpr4pdl5efY2o0ZVZWQfsc/seQfCexh8ReIoUuPElxHmGFwCunKRnaP+mhH3m7HIHFfRSKMcY/Ck2K3YdMfWgnYP6Cv7WyPIcHlGEjg8FGyit+/m33Pcp01CNkP3DdQMH0rzjxf+1Z4B8Ca+2l6n4m0+C8VgkgG6RYD0xIyghTnsSMV3Oi65a+I9Mhu7G4iurW4TfHLG4dHB9COK7MPmmDxE3SoVYylHdJptPzDni3ZHK/HL4J6N8c/CEuk6pD8/L29ymBNaSY4ZD6+o6EV+dvxk+DWsfA/xhJpGrQ7uC9rcRqfJvI8/eU/TBbPKngcV+pWxWHzAN2rifjl8E9F+Ofg+bSdWhOeWt7hMebaygcMh9fUdCK/O/EXw5oZ9ReJwqUcTFaPo/J+phiKHOj8vz1orpfi58LtS+Dnjm90PUlHm2pzHMg/d3EZ5jlX2PQjt0rmulfxvjcJVwleWGrxanHR3/r7jxJR5ZWCjP+NFFct2tegH0x/wT1/aCbwt4o/4QvVJv+Jfqzl9PZ2+W3ucZ8oeiuoLcfxA92r7eVuO5r8jbK8m0y9iubeWSCa3kDwuvDIwIYEHqMMMj0r9OP2e/irH8ZPhNo+uI37+eDZdID9yZflkGP8AeGR7Gv6p8EeLJYnCSyfEy1p6w84vp8metga3MuR9Du93FKOlNz8tOU5Wv32J3HgP7fH/AAUp+E3/AATT8E6H4g+LWvX+h6Z4jvX07T5LbTJ74yzrGZCpWFWIwoNfL5/4Ouv2Jwf+SkeIP/CR1P8A+MV82/8AB7Xx+xr8HP8Aa8aTk+5+wS1/NzHH5mV/HO3txn8sVQH9bH/EV3+xP/0UfxB/4SOp/wDxij/iK7/Yn/6KP4g/8JHU/wD4xX8p4+A3jhxuHgvxVg8jGj3H/wARR/woXxx/0Jfir/wUXP8A8RQB/WJ4D/4Of/2Ofib430fw7o/xC1641bX7+DTrKFvCupIJZppFiQbjCAo3MOSQB1r9CU+7z1r+IH9ir4I+MrD9sL4UzXXhHxVDbxeMdHd3bSrhVRVvoSxyV4wuTk8V/aL+0P8AHbQ/2YvgT4u+IXii6+zeH/Buk3GrXzg/MY4VZiq+rNwoA6kgDrQBe+MHxt8I/s/+Ab/xV448S6L4T8N6Wu651LVbxLa2i9izEfMey9T2Br88/jt/wdp/sg/B3WmsdL17xl8QJo22tL4d0Jjbof8ArpdPAGB7FcjnNfzs/wDBTb/gqL8Sv+Conx7v/F3jbU7yPR4ZSugeHIZ2On6Bb5ISONPuvIRy8zDe7HqFCgeG/C74OeLPjfr66T4L8L6/4s1YJ5osdH06e+uNucE7YlZgPUnH1oA/pc8Mf8HmX7L2q6nHBqHhn4vaPDIQvnyaRaTrGD/EwS6LYH+zuPtX2D+y5/wW/wD2W/2w7+zsPBPxi8Lyaxf8Q6Vq7SaPfSMONqx3Kxlj7Luz2Jr+Srxb/wAE0f2hvA2lvfav8D/ixY6fCPMe4l8KXvlxJjO5isZCj3OB714zLBNpV40TLNb3MDkFGBV4WX2zwQfyoA/vsU4T73Tqa+D/AI8/8HJP7JX7NXxp8TeAfF/jzXNP8TeD9Rm0rU7ePwxqMyRTxEq4DrCVYBsjcpIOMgkV7x/wTAvJr7/gnH8Cbi4mmnuJvAeiNJLK5aSQ/Y4slmPJPua/kj/4LanP/BW/9ov/ALHvU/8A0c1AH9HA/wCDrv8AYnx/yUbxB/4SWp//ABij/iK7/Yn/AOij+IP/AAkdT/8AjFfyb+GPBuqeNLqS30jS9Q1S4iTzZI7O2e4aNMgbyqAkAEgEnjJFbB+AvjgH/kS/FX/gnuf/AIigD+rD/iK7/Yn/AOij+IP/AAkdT/8AjFfQH7BH/BXn4G/8FMPEHiPTfg/4m1LX7rwpBBc6mlzo91YeTHMziMjzo13ZKEcV/Gf/AMKF8cf9CX4q/wDBRc//ABFft9/wZY/D7XvA3xg+PDa3omsaTHc6PowhN7Zy26uRcXOdu9QGIypOOmaAP1o/bt/4LI/AX/gmz480Pw38XPFGpeH9W8RWTajYxQaLeXyyQCQxli0MbBfmB4JBrwkf8HXn7E7D/ko3iD/wkdT/APjFfmn/AMHtAx+2D8G8f9CVOP8AyfevxZ03TZtVvoba3t5bq4uJVjihiQu8zHACqByWJIAA7mgD+tIf8HW/7E7Mv/FyNfXJ+83hLVAB/wCQK9k/Z/8A+C6/7J/7TmsWOneFfjZ4R/tXUCBb2WrNNpM0pPAVRcpGGY/3QSfav44vEHwm8T+ELA3mreHNf0uzVxGbi60+WCMMeg3MoGfasF2YLyRzxjOQP8+tAH99sFws8SusqsrDcrKdwI9Qeh/CrC8KK/kn/wCCM3/Bw/8AE7/gm74003w34s1DVPHnwaupUiu9FvJmubrQ0ZgGmsHZtylVGfIJ8thnAVvmP9V/we+Lvh34+fDLQfGXhHV7XXvDPiSzjv8ATr+0fdHcwuoZW9QexU8g5BGeKAPJP2+f+CnXwf8A+CZ/h7w9q/xe1/UNB0/xRdS2enyWul3F95skSB3B8lW24B79a+adP/4Opv2MdWvre1tviLrz3F1KkUat4T1FQWbhckwgDJxyeK+U/wDg91P/ABjj8C+vPiPUv/SSOv55fhyxbx7ouST/AKfb/wDo1aAP73LO5W8to5o23RyqHU4xkEZFSVT0A50Sz/64p/6CKuHpQB8g/tv/APBcf9nT/gnj8ZE8BfFTxdqmheJpdOi1VLe30K8vkeCRpFU74Y2XJMbDGQRXM/swf8HEP7K/7Xvx08O/DfwH441jVfFniidrXTbWbw5qNss7pE8rAySQhV+VGOWI6V+Jn/B5Jz/wVh0n/sQtMH/kzef4187f8G5p/wCN1XwB/wCw1df+m+6oA/sfVtyg+oooT7g+lFAHnn7U3xCHwv8Agd4g1VW23H2Y29vg7SZJPkXB9Ruz+FfmUFwBuxlf/wBVfbP/AAU/8VNp/wAO/D2kpj/iY35uHGeqwqTj8Sw/KvicDA9frX8heOGaSxGdxwd/dpxX3vU8nHyvNRAcVJa2ct/dR28EMlxNMyqkSKS7knAVAOpJ557UWdlNqF5Db28Uk9xO4RI1Ulnc8Kqgdc988V9y/sd/seQ/CbT4fEXiKKO58R3CboYiAV05SPur6ynu3bkDivh+CuC8ZxHi/Z0VyU18Uuy8vN9Dmo0ZVHZC/sd/seW/wlsYvEXiKKO48TXCZjhYApp4P8K/9NCOrduQOK+iiilfur0x07UmwN/CvTHTrSM233x2Ff2xkOQ4PKMJHB4OPLGPXq33fme7TpqEbCGTaD+WB3r5l/bN/bKXwTDceE/ClwsmuTKYry8iw66eG7KOjSn07detH7Zv7ZY8EJceFfCdwsmuSDZd3sWHGnA9lHRpSO3Ye9fFUsrXDMzNvaZ87nJbex/VifU81+LeJ3igqLllGUy9/aU108o92+rOHFYtL3Y7jpLiS5naVpCzSEsXLFmYnkkk8kn1PJr2T9k39rK7+A2tR6bqTTXXhW8fdJHklrI5wZY/9nP3l/Gu+/ZC/YjXxHbQ+JvGlmfscq+ZYaZKCvmqcESzc9MHhD16mvRviN/wTz8LeMPGem6hpbf2DYrKTqFnaoQtyo5GztGSepxyOmK+J4V8P+KqFOnn2CfLUbT5Xo3FvVtfo9TGjh6t1NHvfh/xDZ+J9Gt9QsLiG6sryMSwzRnKyKe4q7t8z7wznrms/wAL+F9P8IaDa6bptnBZ2NnGI4YY12qi+mP555PetEtgfrX9aUVUdNKtbm0vbv1PWR8t/wDBTnwRDN4K0HxGiqt3p959jY4+/HIrNg/RkGPqa+Lsba+0/wDgpz44gtPAWh+HVKteahe/amUn/VxxowBP1dl/I18WA5Hf8etfxn4yew/1mq+x35Y83+K2p4uM/iBRRRX5WcoYwa+tP+CYnxALXHiDwvNL3XUbZWPc/LJj/wAhn86+S69a/Ye8Tf8ACOftL+H9zbY74TWTknqHiLKP++1Ar7jw5zR4DiHDVfsuXK/R/wDBNsPLlqI/RxeFFOHSmZ3AU8cCv7ti9dD3j8T/APg9s/5M2+Df/Y53H/pDLX84Ph9v+J5Z/NtxOmP++xX9H3/B7Z/yZt8G/wDsc7j/ANIZa/m8tbhrSZZE+WSMgowOCpzkN+lWB/e34MmQeEdK+dB/ocPBIGPkFannp/z0X/voV/F5F/wXR/a8tY1jj/aG+JiJGAqqNU4UDgCnf8P2f2wP+jiPib/4NP8A61AH9oKurHqp/rX52/8AB09d6xaf8EXPiZ/ZPnbZ73SVv9gz/o32+HfkemRH+lfm7/wbIf8ABT39oL9rL/gp/Z+EfiR8XPG3jHw3J4X1O7bTtTvjLCZUEJSTGAMjJweoyfWv3t/az/Zy0H9sL9mrxx8MfEiK+i+OdIn0qdwAzQM6EJKoPG+Nwjr/ALUYPpQB/CiWbzMHI5PHpX9Yf/BrLcfBg/8ABLnwpF8N5NCXxu/nv48WIj+1m1LzmGbjJEhjEZj8vA2BcYO7cT/NT+3f+wX8QP8Agnj+0NrPw58faU1rfafIxsr9EJtNatc/JdW7kYaNhhuuU3bW5BFea/DP4reJvg14wg17wj4g1vwvrlscw3+lX8ljcw9DxIhU4OBx0OKAP704hviViGzgHnGR+XH5V4l+09/wTp+B/wC2VptzZ/Er4X+DPFMl0PmvJ9OSPUF64KXKYmUj2bBr+bP9jT/g67/al/Zoaw0/xZqel/GDw5attkt/EcJXUpEJztS+ixJvPZpVm4GMd6/b7/glx/wcRfA3/gppqNt4Xtby58A/EmYYXw3rbqpvyOT9knUlJ+P4MrJxnZjmgD7X+EHwq0X4GfCrw54P8OwS23h/wrp1vpenxSTNM0VvBGscalmJLYVRySSTz1r+ND/gtr/ylv8A2iv+x81P/wBHNX9qZ5i3cdOtfxWf8Ftv+UuH7Rf/AGPmp/8Ao5qAPuz/AIMq2/42I/ErJBH/AAryXr2/4mViP5V/TMZ0/wCei/8AfQr+FX9mf9rz4mfsc+L7zXvhb401/wAD61qVkdPurzSbnyZZrcurmNsA5Xcqn6qD1Fe1N/wXZ/a+3HH7Q/xNAzx/xNP/AK1AH9oHnr/z0X/voU5MFcjH1r+L3/h+x+2B/wBHDfE//wAGv/2Nf0vf8G6H7QfjT9p3/gkp8OfGnj/xNq3i7xVql1q63epajMJbq4WLU7qJFJ77UVVHsB2xQB+Tn/B7X/yeH8HP+xLn/wDS96/NH/gk8M/8FOPgCP8AqoOiD/ydir9Lv+D2vj9sL4Of9iXP/wCl71+aP/BJ7/lJz8AP+yg6H/6XRUAf243dhBqVo8NxDDcQyAh45EDK46cg8Gvza/4LHf8ABu38J/2+/hPrOt+A/DOg/D/4vafbvPpmp6XbLZ2esOoZvs95FGBG285AlC70JDEsoK1+lKdKNoGeB69KAP4FvEugX3hLxBfaXqdrPY6hptw9tdWk6FJLeVGKujA8gqwIINf0G/8ABmN+3ndeKvAfj79nzXtSkm/4RWP/AISrwzDKf9VZyS+VfQqf7izSW8oA7zye9flj/wAHCXw/s/hr/wAFl/j7ptjGsEM3iBNTKqoAMl5bQXch49XnY/UmvY/+DSzxNcaF/wAFmPCVrD8sWt+HtYspxngqtq04+uDCtAH6B/8AB7t/ybj8Cv8AsY9S/wDSSKv54/hx/wAj9ov/AF/2/wD6NSv6HP8Ag914/Zx+BX/Yx6l/6SRV/PH8OP8AkftF/wCv+3/9GpQB/etoH/IEs/8Arin/AKCKuHpVPQP+QJZ/9cU/9BFXD0oA/lo/4PI/+UsGk/8AYhaZ/wClF5Xzr/wbm/8AKav4A/8AYauv/Tfc19Ff8Hkf/KWDSf8AsQtM/wDSi8r51/4Nzf8AlNX8Af8AsNXX/pvuaAP7IE+4PpRQn3B9KKAPjf8A4KnTM3iLwZD/AA+RdP8Ajuir5QHSvq7/AIKmjHinwa3Vfs10P/H4q+UVOVr+H/Fh/wDGUYlvurf+Ao8PGfxWfXP/AATl+GPhPUbS68Qtdw6h4otXMX2aQD/iWoejKvUl/wC/0/hGCDn67iAMS9On51+U/wAOviNq/wALPFcGs6Lctb31qQCBzHID/A47ow6+/NfoZ+zp+0hpX7QXhhbi1b7PqdsFW+si3zwOQMMOeUPYjrX7V4PcXZZVwayhRVOrHf8Avvvfv5Hdg60bcnU9Org/2lfEmpeEfgV4p1DR42a/tbCRo2UZMQPDyAd9i5fHfbiu8UHZVe/sotQs5YJkWSKZTG6N0cHgg1+05hh5V8NUoU5cspJpPs2tzskm1ZH5JzyvcySNKzO8jF3LtuLMeSSe5969g/Ya8H6D4z+PFrDrywzJbQPdWkMuPLuJ0ZMBgeG2glhnr+FdB+2T+x5N8I7qbxF4ehkl8MTNuuIQCW0sk9TjkxE8ccjgdK8DsNRutI1KG7tJpre8tiJI5IjtkidTlWBHQ/Sv4Yq5fieG89g81p83s5Xd9pq97rv39TxHH2VS8z9bI4lRRtVc4BOB1qQoHXlR0546189/sffthQ/GPTY9B12aO18TW8eEYHauoIP+Wij+8P4l9a+hFOR+Ff2xkGfYPNsJHGYKV4vp2fn5ntwmpL3Qxz2rj/jN8YtH+Cfg+41bWLny1XKwwoQ01zIeiIvc/oOtN+M/xj0f4I+D5tX1i4aNV+WGFPmmuJD0RF7n9B1r87fjb8bNa+PHjCXVNTdljXKWtqjlo7NM9B6nHU96+I8Q/ETD5BReHw7Uq8tl282YYjERpK3Ur/Gb4ual8bfH11r2rNzJhILdXLpaxKTtjHr1ycdTk1zdtYzX1x5MEclxMxAURozGQn0Xkn+VdV8FfgtrHxx8ZxaRpEflrGwlubpl/dWkeeXY9M9go69a/Qb4I/s4+G/gdokNvpVjG11sAnvpUDXFw2BklsZAJ52g4FfgHCvAOa8W155jipcsJP3pNXbf9086jh51XzS2Pz4b4A+OI9O+1N4R8RfZQu4yfYn4H0xn8q5S7tJLK7a3mimhmXgxSgpID/ukA/ga/XEx/LivLv2kPgx4P+JHgi/uPE0VtY/Y42caqMRzWoA4bd1IB42nIb0r7jPvAenRwcqmBxT5oq/vJJO3TTY6KmBSjeO5+bfT/wCuK6b4KXjad8ZfCcy5/d6xaHg9vPQH88n86529iigvJo4JvtECOVjl2GPzVB4baeVyOcdq3vg9C1x8WvCsS8mTV7Rf/JhDX4LlN45nST39pFeXxLbyPPp/Ej9UoDlB9akqO3/1Y+tSV/olHZH0Edj8T/8Ag9s/5M2+Df8A2Odx/wCkMtfzf6Vbrc6hDEzMokdVJBAwueevf0Hev6Qv+D2iJj+xp8HJNp8qPxtKrtjgE2MpA/EBvyr+b3SrprG/gmXdvhdXUKecgg/yqij+j7RP+DK34H6rotndN8VviorXECSkCGxAG5Qf+efvVv8A4gnfgf8A9FY+Kv8A36sf/jVfYv7OH/Bfv9k34n/BHwxrFx8avBHhe8utMgNzpWsX/wBjvdOm8td8LxuozsbK71ypxkEiu5X/AILefslbf+ThvhV+GuRmgDwb/gmL/wAG23wy/wCCXf7T8fxR8J+PPHXiDVodLuNL+y6qtr9mZJ9u4/u4w24bBX6QbFkT5lByMHIr5i8Pf8Flv2V/GHiHT9L0349fDHUNT1S5S0tLaHWEaW4ldgqIi9WJZgPfNdj/AMFD/wBp/U/2Nf2KfiT8VNI0201nUPAujyapBYXbssN0yMMoxT5lyCRkZweoNAGt+1f+xZ8Lf24vAf8Awi/xW8E6L4y0eGQzQJewnzrRyNvmQSriSJ8d42Ge4r8iP2vv+DLXwX4jM198EPiVq3haaVyw0jxTD/aNkAQ5CrcRBJkAO0Aur8dST19v/ZK/4O9/2aPjlZWFp8QLfxR8JdbmCrc/b7U6lpcbkDO25gBcrnPLwpxyQOg+2vAP/BWH9mX4l2H2rSfjz8JZo9oZvO8T2tqw+qzOh/MZoA/lK/4KDf8ABDz9ob/gmvHNqnj/AMIi+8IxyrEninQ5/t2kkt93e20SQZPyjzkQFuhPFfKPh/xBeeF9Zs9S0+6utPv7CZbi1ubaQxTW8iEFJI2BBVlYZBBzX9Wv/Ba//gtB+zf8Pv2C/id4TtPiB4J+I3ivxx4fvND0zQdDv4NVZ5bmF40nmMTOkUcR+fexzujG3qK/k6dsyfLx2oA/so/4IGft46x/wUP/AOCang3xt4mk+0eLtLlm8Pa7OWJa8urXavnn0aWJopGH952r+Xr/AILaHd/wVu/aKP8A1Pmp9R/02av6DP8Ag0M+H174N/4JA2V5eQyRx+KPF+qapbBlI3xAQW2eR0LW7HI4Oa/n1/4LboU/4K3/ALRXBB/4TvUzz3BmbmgD0b/ggd/wSt8Jf8Faf2nfFngXxh4i8Q+G7Hw/4YfXYbjSFhM0si3VvFsYSgjbiYnp2r9Zh/wZO/A/H/JWPir/AN+7D/41X5t/8GuX7d/w0/YI/b71zVvilr8fhfQfF3hWfQ7fVbhSbW0uftFtcIZioJVWWJ1DEYyRk1/REn/Bbz9kkov/ABkL8K+n/QcjNAHwF/xBO/A//orHxV/792P/AMar9Mf+Cc37DWhf8E3f2SvDfwf8M6xq2vaP4amu5Ib3UxH9pkNxczXLbxGAoAMpUcdAK43/AIfefsk/9HC/Cv8A8Hcdek/s1/t3fB39sPVNVtfhf8R/CPjq60ONJb5NHv1uWtUkLBC4A4BKt/3zQB+Cn/B7T/yeD8G/+xLn6/8AX+9fml/wSe/5Sc/AD/soOh/+l0Vfpb/we0f8ngfBv/sSp/8A0uevy/8A+Ca/jbSPhp/wUE+CviLX9RtdH0TRPG2lXt/fXLbYbWCO7iZ3dv4QqgnPbFAH9xCdKhuZNiNucouGJO7GB3J9AOtfJuu/8F3P2Q/Ddj9ouP2gvhvJGOStrqTXbkDOdqxozE9sV+X3/BX/AP4O1dA8c/CXWvh3+zPba1JeeIIHtL7xrqFv9iFlC3yt9ghYmQyMuV82ULsPKqSVYAH5U/8ABbP4+6T+0v8A8FWPjl4x0O8ivtF1DxK9pZXMJylzDaRR2iyKe6sIAR7Yr6Y/4NFfh/deLf8Agr9pOqQxSPB4V8LatqEzgfJH5kQtVDfVpxX5ibC0oHH3tqljx+o6dznnmv6af+DQn/gnPefs4fsq6/8AGjxPpf2PxD8XvJTRVuIttxb6NCS0bAnotxITJxjcsMJ9MAHEf8HudtI/7NPwNmVd0MfibUFdvRjaIQPxAb8q/nZ8Haguk+KdOunxttrmKUg99rg//Xr+rD/g68/ZcuP2hv8AglHrWu6bpzahqnwu1i18TgISXW0G63uiMc4EU29vRY81/J9kxv8Ae/Ed6AP74fAGsweI/BOj6hayrNa3llDPFIhysiNGrKQfQgg1sHpX4k/8EF/+DlL4TzfsqeF/hP8AHbxVH4H8ZeA7CPSrDXNUeRrDXrOIBIC8+GEU6JhGEmAwjDhtx2D7Q/aE/wCDir9kf4A/DS+19fjB4d8Z3kEZNtpHhmX+0L6/cdERV+RcnA3O6LjJ3Z4oA/Dv/g8D8UW+v/8ABXV7OHd52i+DdKs7jJyA7GeYD2+SVD+NeFf8G5UbS/8ABar4C7EZvL1e7kIUZKgaddk14N+3f+1/r37en7Wvjn4s+Io1t9Q8Y6m1ylojbo7G2UBLe3VupEcSIu7uVz3r9AP+DQH9le7+MP8AwUxm+IUkX/Em+FOhXF48uD/x+XaNawR+h/dtO/tsFAH9TCjaoHpRQvAooA+UP+Co/h55vD/hPVkjZlt7mW0dh28xQy/mUr42Nfo1+3F4Ek8efs8a0luhe60zZqEQA5zG2T/47ur85QQR8vC9hX8c+NmXTw/EDxH2akU16rRnj46Nql/ICM4/2entW58O/iPrHws8WQa1ot01vfWrDIHKSA/wOP7pHX35rDoIzj/Z6e1fkuFxlXDVVWotqSd7re/c5FJrVH6Vfs4/tH6X+0D4VW4tXW21S1ULfWLN88DEcMPVD2I65r0wcGvyl+HfxF1j4X+K7fWdFunt76zbkDlJQTnY4/uEdffmv0N/Zy/aS0n9oLwot1bsLbUrdAL2yLfPA3973Q9j3Ff1/wCG/iVSzqjHBY5qNeK36TXf17o9fC4lTXLLc9FvbKLULWWGeOOaGYFWjcfKykYINfCn7Yv7HE3wkupPEXhuGSbwzId00IBZtKJPUAcmM+vVeAOK+8VHy1Bf2UOo20tvcRxzQ3AKMjjKuCOQa+t4y4MwfEODdDEJKovhl1T/AFXdG1ajGorM/JfTtQuNKvobq0mmt7u2cTRSQth4nByrA+uOOO1fXPwu/wCClVrZeCFh8Uaff3GtWqbUks4wYr7A4LE/cb1964P9sb9jyX4R3EniTw7E03heVi88OCTpbE9eOfKOcDHK8DpXz6/zsd3XvkV/KFPMuIOCMfPCwbi30avGS6Nf5nlc06ErI7L43/G/Wvjv4ym1TU5JFjUlbS1Vjss0zwAOm7GASOtM+CvwV1r46+M00nSIiq8G6umU+VaR55dj0z2Cjr1o+CnwU1r47eMo9I0mIheDdXTA+VaR55dj69go69a/RT4MfBbRfgn4Pg0nSINqqd887D97dSY5Zzj8h26DFe7wPwNjuKsbLMszk3RveTe8n2Xl6aF0cPKtL2k9g+DHwY0b4JeDodJ0m3VVH7y4nYfvrqTuzH+Q6DoK7HOKFTAHH51R8T+JbLwno1xqGoXENrZ2qF5ZZGChQBn/ACK/rfD0MNgMMqVJKMIKy6JJfoeukoryG+JvEdn4U0W61DULqOzsbSMyzTSOFWNQO5/yc1+f/wC1j+1be/HnWmsNPaW18L2MmYYG+WS8fs8gHGSOVXpg88079rL9rG8+Pmstp+mmS18LWcmYIOj3r9pJPqOVXpg8814z90Y+o/PrX8teJ/ig8xnLK8rl+4WkpfzPy8jysRjLvkjsBOTXpX7IHhf/AISv9pDwtbsu6G3ujdt7eVG0gP8A32FFea19Mf8ABM3wL/a3xF1rxFIv7nSbZbSFufvy8t+QQ/8AfdfnPAOWzzDP8LRtpzJtf3Vq2c1CPNUR9u/dA/OnjpTfvD8KcvSv73jue+fEP/BfX/gmzqn/AAU9/YI1Twb4Za2/4Tbw3qEfiTw/HO6ol3cwoyNbFjwhlhlkRWPCsULcZr+Rf40fs9+Ov2b/ABneeHfH3g/xF4Q1izdo5rTVrCS1YFTgld2AwyOGUlT1GRX94jRq/wB5VP1H+fWsXx18NfD/AMUNFfTfEuh6P4h02Q7mtNTso7uBj7pIpX9KsD+CPGO4/wC+hRt/3f8AvoV/dIf2Hfgv/wBEj+GP/hKWH/xqj/hh34L/APRI/hj/AOEpYf8AxqgD+K39iNSP2yfhKOP3njPRh25H2+HtX9j3/BVH9n3xJ+1V/wAE7Pi/8O/CFvb3nifxd4euLDT4LidYo5Zjgqpc/KuccZIGep713Vh+xb8H9KvoLq1+FPw1trm1lSeGWLwtYpJFIjBkdWEWQysAQRyCM16aFG3Ht6UAfwvftKfsQfF39jnxRcaT8S/h74q8FXVtJ5Pm6hZMtrI2cZjuFzDIvoyOwPBGc15WyGN9pVVYc4PykfnX98nifwjpnjXQ7rS9Y0+x1bTL5PKuLO8t0uIJ0/uujAqw9iMV4H4r/wCCRH7LnjXUGu9V+APwjup2YsX/AOEZtY+SefuoBQB/E0jM6ryAV54IwB3P17V9i/8ABLT/AIIlfGL/AIKdfFDTLfR/D+peHPh/HcRnWPFuo2xgs7WDcN4g3DNxMVGFRAQCRuKj5q/qo8Df8EoP2ZvhzqEd3ovwF+EtjPGSVkXwzaOQeuRujNe/WOmwadYQ2sEMUNvboI4oo0CpGoGAqqOAAOMDjFAHH/s6/Afw7+zB8DPCfw98KWv2Pw34P0uDSrCIncxjjQLlvVmILMe7MSeSTX87/wDwc/8A/BFb4ieEf2u/Enx6+HnhfVvFfgPx40d9rQ0y3a7uNA1AII5mkhQF/Il2CXzNrAO0gO0Bd39LFIFAGMD8qAP4Dri0lsLiSOZJIGjO1lYbXX8Cc1CyfMfu9f7wr+7zxt+y78NfiVrkmp+Ivh74H17UpBhrrUdAtbqZh6F5Iyx/Osf/AIYd+C//AESP4Y/+EpYf/GqAP4W9n+7/AN9Cv3Q/4MiJVi+Mv7QG5l+bRdGGCwG4+fdYx06V+6n/AAw78F/+iR/DH/wlLD/41XT/AA2+Avgf4OXV1P4R8G+FPC018ix3MmkaRb2LXKqSVDmJFLAFmIBzjcfWgD+eL/g9mYN+2N8Hcsvy+DJuNwzzey9ua/FIxbDglQR1+YV/eL8RP2efAXxe1KC88WeCfCPie7tYjBBPq2i217JDGTuKK0qMQpJJwOM81zv/AAw78F/+iR/DH/wlLD/41QB/C4CV6N+TCuv+EvwF8a/HnxBDpPgnwj4m8XatdMI47bR9OlvJCxPBxGrcepOAO5r+3T/hh34L/wDRI/hj/wCEpYf/ABqu88FfD/QvhvocemeHdF0rQdNi+5aadZx2sCfRIwFH5UAfz+/8EcP+DTTX9S8X6T8RP2oIIdJ0fTpFurbwHFOs11fsMFPtzplIohgZhQszYwzIOK/oS0zSrXSNNgtLW1t7W1t4lhighjCRxIqhVVVAwFAAAA4AAFTCNQuNq4+lOoAyvFfhfTfGvhzUtH1azg1DS9WtpbG9tp1Dw3EMqMkkbg8MrKxBBBHNfyvf8Fr/APg3D+I37BvxH1rxh8L/AA/rXjv4LXcr3dvNp8TXd/4aV2J+z3cagyGNM4W4wykAbirEiv6tdoz0H5UbASOBxyOOlAH8BrpJbzyKSY2Q/MD8pz9Dg/h2ph3D+IhewzjPev7hPiv/AME1v2ffjrrE2oeL/gv8MfEGoTuzyXV34ctWmkYnJLPt3MSSSSTya5vw7/wR1/ZX8J6jHeaf+z58JIbiI5Vx4Ztm2n6MpFAH8iv7EP8AwTd+MX/BQv4jW3hz4WeCdW1tmdUvNVlie30nS1/ia5uWHlxjBJxksw+6hPFf1qf8Ei/+CXfhb/glJ+yfZ+ANFuF1rxBfyDU/E2u+R5MmrXxGCQvLLCgG2NCTgbieXbP0r4M8B6L8PPDFpovh/R9L0PR7FCltYafaR21tbqTuISNAFUEkngdTmtXy1P8ACPyoAcOBRRRQBV1XTYtUs57eaNZYbmMxSowyrKQQQfwNfl78bvhnN8Hvilq+gzRyeXaXJNqzf8tYD80bf98HB/2lr9TCM/yr5k/4KGfAVvGXhOPxfpsPmaloC7btEB3T2uSx+uwkt9C3oK/H/GDhSeaZT9Zw6vUpe98upy4ulzwv2PiKijpRX8b+v9dzxQPP4dPatv4dfEXV/hd4tt9a0W5a3vrNhkDlJQf4HHdSv61iUHnHt09q6MLi6uGqxrUXaSd01vcak1qj9Kv2cv2kNJ/aA8JJc2rra6nbIBfWJb95A394eqHnBHUYr0sDb/Wvyl+HfxG1b4WeLINZ0W6Nvf2rA4OdsoP8DL0Klf1r9Df2cv2kNJ/aB8MLPasLXVLVAL2xY/PbucYPuh7EV/X3hv4lUs6oxweOajiIrfpPz9e6PXwuJU1yy3PRr6yh1G0lt5445YZlKNG/3XB65/CvmPxr/wAE0dC1nxPJeaRrl5o+nTSbmsxbLMsQJJxE3GB2wQwAr6jUce9DLzX6DnnC+WZvGMcyoqfLs30OmdKM9Gch8HPgpofwQ8JRaRosG2MNvnmkw01y+PvO2Bk/oO2K64cClHC1m+J/EVn4U0W61DULqGzsbSMyTSyvtWNR6n/DnNelQo4fA4dUqSUKcFp0SS7lK0V5B4o8RWfhTRbrUNQuobOxtIzLNNLJtWNR6n/DnNfAH7WP7V198etXk07T2ltvC9q/7qBvlkvX7PKBxyOVXpg880v7V/7WN98fdZbT7BprPwvYyfuYGysl6/aSUDjkcqvTB55rxonn8x+fWv5a8T/E+WYzlleVytQWkpfzPsvI8vE4u75I7Aevr1/Xr+dFFFfhUby02/rc8/zDOM/d+U9OpYYB/riv0a/Yy+E7fCj4HabDcR7dQ1X/AImF0COVaQAqp/3UCjB75r5G/Yv+Az/Gj4pw3F1Du0LQyLm8LL8szg5SD33H5z/srjvX6JRooVflXgY6V/THgfws4xlneJjp8MPTq/0PVwFG37zuPx0pwppb5vrTh0r+j4noHyr/AMFRviV8QfCOn/BXw78OfHl/8O9S+JHxLsvCt9rVlpdlqVxb2sljqE7hI7yOSEkvbxjlcgZp1tb+Nv2B/hR48+InxU/aA8R/FLQ9H0Zp7a117w/pOlwWVwgYoRJp1qkjeYxEZDhgM5HSuN/4LOaDpPitP2atP17U7zRNHuvjRpkV1f2mrSaTcWqnTdUCsl1E6vCS+1dysp+bbn5ue5tv2f8AwP8ABX9nr4qR+C/FXi7xJc6l4XvVnj1jxzf+JWh2W023y1urmXy+XwTHtLYUHOBVAXvgP/wUu+G3xD/YY0H43+JvF3hrwz4fm02xfXbmW5ZLTSdQmgieS0DyKjSOJJVjVVUuxIwDmuJ/bH/4KDaB8Q/+CXnxo+J/wK+IFnqGoeENGulh1PTwPtGj30YRhHLDMm6KUbgdk0ecMDtIr5k+I2vapqvwP/4Jr6toOseAYdIXSobezvvFcE9/4dTW28Oxppyy+RJHi4JS7SDc6kTDaMtgVoft+fs0/ErwT+zl+1z8T/H/AIr+FtzeeKvhZFpGp6N4P0+8sopLi1mlkgv7lbi4l3SeTK8IIUFkjQE4AAAPrX9ur9tHRf2bPCXhW3u/i14O+GviLXM3YGraHca7Nf2i28gdo7O3ZZV2TPAxlPyBVZTgsMe2/AX4iWfxX+C3hXxJp/iTRfGFprGl29wNb0cbdP1RmjUtPCu5tkbMCQhZioOCSRmvm/4j/tH+MvH37T+h/Dj4ZeIvhn4ZtYPh3F40vPFeuWn9rz3ltLdPbpDZQpcQo0KGFnmmaVlXzYhtO4EeV/8ABLLwT4++KX7Alxa/D74saJ4OvbL4peMS+s6T4cttV03Urb+2b0BLaCWUrDbvIwlQq7YUBQxByQD3D/goR8efHvhL4k/Bj4W/D/xFp3gXVvjPr17pc3iq7sI9Qk0W3srCS9kW1gkzDJdTCPZH5oZRh22PgKOy+Bfwx8efs3R+INR+I3x01D4jeE7exN2s3iHQtO0y40Xy/mlla5tFijeHYCSHjJXrvx8tc148+AfhHxp8GdL+F/7TPjjwz8TtQ8UaqZ9HuNStIPDd1c3EO2SJLKO3lWRbiL5nDwMJMORnGRXzF4o/a11r/gml8V/jh4JsfHGpfG7wH8P/AIXHx1Bp/ifVFvtS8IXv21bRNOutRCtJJbTRs0oEyvPHHE/JUg0AfXXwd/4KYfAz9oO616Pwf8TPD+qSeGtMk1vUIsS27x2KZLXaCZEM0AxzJGGQZ+9yK9E1v9oXwZoHwq03xzeeKNHt/CGspZNYaqbkfZbsXrxJaFH/AIvOeaNUAzu3r718Qa3L4707/gpn+yqvxB+Inwl8SavqWn+JTFpXhXRWsZrWyk0YyybXkupWmsvNih2kxruKRtxyBwH7NXh2/wDEP7TfgP8AZCvo57jRP2aPGWq+O9SedXKPosO248LReY33lWXURkdv7KIwB0APtz43/wDBTD4F/s5fEubwl4y+Jnh3RPEFukb3dpI0s39miTiNrp4kZLYN1BmKZHI4Oa6T46ftq/Cz9mjQ9I1Lx1498OeG7PxBA8+lNdXQJ1VU8ot9mVcmY4mj/wBXu++uM5r51/4JneIPAfh79mn43J4uuNJsdY0v4g+K5vicNeeFWDPf3DpJe7+Bbvp5t9nmHZ5Ozb8uK8p/4J26ALw/sN/b9PkNva+DfHN1oKahFvmtNON5p/8AZrKHGVIsXgVTgMFbHAOKAPvP9nb9p7wJ+1h4E/4Sb4d+KNL8VaGtw9m9xaMwaCdMb4pUdVkhkUHJR1DYIriv2hv+CkXwR/ZW8bjw38QPiRoXh3XEtlvZ7NhLPJZW752z3AiR/s8R2tiSYopwfSuF/ZEs7bRf+Cl37W1rZQxWtrdS+EdTnSJdqSXMumTRySkDgyMIYtzdTtXJOBXH/Fv9oHxz8Y/j18fvB/h3xF8H/hp4R+EllZWXiK/8WaOdTutba7037SZZU+026Q2SxTCINIX8xkkwQqkMAfQvx1/bm+Ef7NGl6LeePPiB4Z8NweJLV7zSPtF1ltXiQRlmtlUFpsCWM/Jk/vAa851H/gsp+zLpnh+x1ST4zeFpINSadY4LcTz3tv5JAlae2SNpoFTcNxmRAvrkGvkj/gnlKPE+vf8ABN24vo4bqaH4JeI5EaVN5t3WDRFVwSOGCkjIwcE+tfSn7IHhzTo/+Cq37Yd9HY2a6hM/g6KW5WALNLH/AGOxKF8ZYdDgnqM0Ae2fEb9uP4R/CL4XeH/G3iT4jeEdH8I+LIfP0XVp9ST7HqyeSZx5EgysrNCC6quS2MDNebv/AMFlP2Zz4a/tX/hb3htk+1mx+wCO5OqiYIJSDYCL7WFCEMXMIUL82SK+W/2VfBOk2K/sa+HmtbW40nw38WviRZadDNAkkdrHajxCluFUghSgRdpGNuBjFfSvw78Laa3/AAWY+J2qf2bY/wBqR/Cfw2gvTbobhVbUtXDL5mN3IjQHnnYvoMAHqOt/t1fCPw7+zxp3xYuviB4bHw71gxR2Gtx3PmW988j7Eji2gs8rOCnlhd24FcAg1x3iv/gpz8K7j9jvx58YPCHjLQ/Emh+C7a6STY0sZS+ih3x2k8ewTQu7lF2sgb94DwDx8rfCD9oDWvgJd+Kvhz4CsfCthrXxH/aV8T+HdE1DxBbPJovhrFqNTmlMcbIWmcrMsMSum+WbBI5qbwj/AG1/wuL9vDT9W8ZeDfHGvSfC/Tn1K48L6b9hVbtdP1aLZcW/2i4xdLGiA5YHyzCCpOaAPUviN/wW5+HPgf4Y/AzX4Na0C7PxU1+y0nVN73KJpEDWzzXcy/uv3hikEcYX+MygjgHH0R8PfjXpuu/Ev4gM3xG8Napo+hWGmai2lJCLaXwtbzWrTefdzs/zrOo81Swj2Ih4PJr5U/aA8X6bqH7OP7BusQalYyaRcfETwk0d9Fdqbc+Zod9EhEpYhtzNtXruJC5JOK8s/bMjTUfiP+3kL6O4uPD0KfDSbxJFDyzaKnz6luC5byxaLceYCADH5g5BoA+3vgR/wUv+Bn7TPxGj8J+B/iZ4f8Q+IJ4ZLq0s4jJC2pxJ997UyKq3CKOS8RdR1yMVm/EL/grD+zr8K/iDfeFfEHxi8HaXr2l30mmahazXJP8AZdwjqjC6YDZbgM6jMrKpPANeW/8ABULxF4Z8QfDX9n2HwXeaLfeMNU+Jnhi6+Hq6VLC8z26XcT3ktr5ZObMaYLnzmQFPJYg5VgtYv7D/AIw+GfhLwb+2dc+Ob7wlaaDZ/FzxLN4r/tKSFVjsDb2wAug3Plsm/buBBBIXJoA+sNV8dfZPj9ounyeNtCtLG60G91D/AIRya1X7bfrHNbj7dHcGT5YYllCOgQgmaNty4w3A/C3/AIKj/AP42eJdU0nwn8UPDuuX2i2N1qVyIPO2SWttj7RNDIyhJkTjLRM4B446V8c/sJfDW68R+FP2aPCXxCXUtPt9W/Z78T6ZeJezNaXlrpk15piwLIzcxOtk8YJb5kIGeQa9s/Zh8W+Pf2LfjL8G/gH4t1vwF8SPAvirQ7ux8DeJdJtxpet2sGnWiyAXloheGWI24RPtNsUBk8sMieYu4A9A/Ym/4KeeBP2rP2bte+IV54g8O6Pb+FLnUTrh+1SR2ul2kF5dRQTySzIgw9vbrKwH3Sx45ArtP2eP+Chnwb/av8U3mh/D3x/pHiLWrO2F61gqS29y9uTtE8Ucyo0sJPHmxhkB/i5FfB9x4i0G4/4JW/DuTxJdW954B8P/AB8kj8fLI4NvZWMfiy+dhegMQkCXT2ryhztVCSwx8tfTX7cuteGdY/a7/ZPtdJmtLvx9H41n1CwNmQ91FoJ0e+F/K20nbaEta5Zh5ZfyQDuoA+wlOVFFNjOY1+nrmigB1Vb2zS8ikhkWNo5AQVYcFcYNWqYc5/hqKiTjyyV09H8w30Pzy/bD/Zlm+B/jFtQ0yJn8M6k5+zsq5FlKcsYm/DJUnjHHavFwcjjGO2Dmv1d8a+CdN+Ifhq80nVLSO8sb6MxyxOoIbnjr3B5B9a/Pz9pv9lbVvgLrUl1AJL/w1O5Fvecs1uSfljl9HwQAzZDdeDX8leKHhnVy6vLM8uhzUXq4r7P/AAGeTi8NKL54nktFBXYcbSuOMHtRX4d12scEdrh2+nT2rb+HXxG1f4XeLrfWtEuWtb60IBxykoJzscd0YdffmsSg84/2entXThcVVw9RVqEnGSd7rdehUZNO6P0j/Z6/af0P48eHYngmSz1iFQLuwkcCSNsfeTP3kPY+nWvUVbI5r8kbG+uNLv4bq1uJre4gO9JY3KPGfYjkfhXeWH7VnxG06y+zw+MNY8sjA81xI4HszKT+Oa/ovh/x4pww8aWa0nKaVrxtZ+t+p6cMckvfR+jXjHxxpfgHQ5tS1i+t9PsbcEvNPIFC+gHqT2A5r4I/aw/auv8A4860+n2DXFr4Xs5MwwMNsl4/Z5B2yOVXpg8815l4s+IeveO7tZta1jUNWmjzt+0zs6x/QE4B+gFY4+6PQDA+h618bxx4tYrO6TweEh7Gi9037z+7oc9bGOa5UrAeOP7uQPx60UUV+PR1Vnp5HE1bUK2fh78P9V+KPi6z0PRrdri+vG2r8vyQjPMjnsoH60vw++HOsfFLxRb6PotnLdXlwwGVB2RL3Zz0AH61+g37M37Mul/s+eGtqiK+12+jBvb0jlj18tPSMenfGTz0/SPD/wAP8ZxBiY1aycKEX7z6tdl6nVh8PKpK72Og+BPwW034GfD+10XT/nZR5l1cEYe6mIGXJ/AAegAHQV3AGBTVORTh0r+1MDgaGDoRwmGjywirJdj2krKyDbRRRXYM5z4pfCTwr8bvCE/h/wAZ+G9B8WaDdOkkum6zYRX1rI6NuRjHIrLuVgCDjIIyK5j4KfsefCn9nC/vrz4f/DfwP4Ku9ThW3vJdD0W2sXuo1OQshiRSyg84ORXpVFAHmUX7HnwrtvhlrHguL4c+B4/CGvXUl7qGiLoduunXlw+0tM8GzYXLIp3AZyoPYVL8Iv2R/hd8BfCeraH4K+Hvg3wxouvApqlnpmkQQRampUptnVUHmDaxXD54JHrXpG0Y6UY/SgDxjxH/AME9PgT4w8MaDoupfB34aX2keFmlOkWcvhy1MGmCV/MlEK+XiNXf5mVQAx5Ir0j4efDHw38JvDv9j+FtB0bw5pIledbHS7GOztkdzudhHGqqCx5JxknrW/tHpRQBx3xj+Afgf9ojw2uj+PPB/hjxppcbl0tNa02K/hibGCyiRTtbHGRzWV8KP2S/hh8C/A2qeGvBvw98G+GfD+ubv7S0/TtIgt7fUtybG+0KqAS/Idvz5O3jpXoxUHtRjNAHk/wf/YZ+DfwC1SG+8E/C34f+F7+CR5Y7vTNBtra5iLo0bbZUQMoMbMmAcbWK9Diu90v4d6Do3jLUvElnoul23iDWoILa/wBSis0ju72KHd5KSygb3WPe+1WJC72xjJrbK7hyKKAPK/il+xR8Ifjd45h8SeMvhl4F8U6/DGkKajqeh291cOiHKI7shLKp5UNkA9K72fwLo914g0rVptL0+TVNFhmt9PvGtkM1lFLs81I3xlFfyotyqQG8tM52jGviigDH0nwJo+heJ9W1uz0nTrTWdeWFdSvYrdEuL8QqVi81wN0mxSQu4naCQMZrhfil+xX8Ifjh8QLPxT4y+GPgPxV4isEWKDUtV0K3u7pEUkqu+RCWVSSVBOFzxXqWKAMCgDldC+CPg3wxdeH7jTvCvh3T5vClpNp+ivb6fFG2kW02zzYLcqv7qN/Lj3KmA3lrkHaK0NI+H+h+H/FWr65Y6PpdnrXiAwtql9BbpHcaiYU8uIzSAbpCifIpYnavAwOK2gNoooA5fSfgx4R0KXSnsvDOg2r6De3Wo6a0VhEhsbm6837TNEQv7uSXzpd7Lgv5r7idxzo2/gXR7TxldeIodK0+PXr60isLnUFt0F1cW8TO8cLyY3MiNJIyqThTIxABY516KAPP/HP7LXw2+JngzV/DviDwH4R1rQte1L+2dQ0+90mGa3vb4kE3UiMpVpsqp8wjdwOeKm+Ef7Mnw6+AljcW/gnwL4R8JwXlvHaXCaRpEFmLmJN21ZDGgLgbm+9n7zHua7ojJooA8ztf2OfhTYfCvVPAkPw38DxeCtbu3v77QV0K3/s25uH2kytBs8vfuRW3bcgqCOgrpvDfwf8AC/hCfUptL8O6Lp82sWtvZX8kNnGr3sFvGYoI5WAzIscZKKHJCqSBgEium2j0oxzQB5X8Kf2KPhH8C/GVz4g8F/DPwN4V1y6R4pL/AErRLe1uBG7FnRHRAVVmOSq4BPavDf2bf+CXHgm3+IXxV8VfFT4afDnxP4i8QfE7VvFOhahe6Xb6hdQWE4tvIDyMhYMHhZwhJCEjFfYwGBTQig/dX16fhQBi6n8ONA1zW4dTvdF0m71GGym01Lma1SSZLWYqZYAxGRG5RCyA7WKrkHArz/4I/sK/Bv8AZw8aXniPwH8MfA/hLXb5Wil1DS9GgtrgRNgtGjqgKIxAJRSF4HHAr1wDAo2jOcc+tAHC6R+zh4B0LUfFd5Y+C/CtndeO12+I3g0qFP7e4ZT9qAUCfIZhmTcSGPqaofBb9kT4V/s5areX/gL4d+DfB99fRfZ7i50nSIbWaWINvERdVB8sNyE+6D0Ar0nbntRjmgAU/KP6UUUUAFG3miigBCoI6CqWs6La69p89reQRXVrcIY5I5FDI6nggir1NK557/Ss61OFSLhUV09+wb6Hx3+0L/wTskt3m1bwGytGcs2kSOF2d/3Lnj/gLdhwRXy3rvhvUPDOsTWOo2dxY3kJIe2lhdGXHB4POPfJr9aNmTXL/Eb4QeG/ivpzWuvaPZ6kn8DSxAyRn1Vuqn3FfiHFvgvgswm8TlbVGb+z9l+fdHDVwMXrE/LEHcOOnbBzRX2X8Q/+CY2m6g8s/hnXLrTZGJYW98v2iPk9A4IYAe4Y/WvIPFP/AAT8+I/hws1vY6frES85s7wBj/wGQKT+Br8MzXwv4jwLaqYb2i7xd0efLC1Iva54mDijNd5c/sxfESzOH8Ga6T0Oy33fyY1DF+zX8QJn2jwb4i3Hpm0IA/WvlJZDmkXyvDzT7ckn+hPs5/ynEnmivVPDX7FPxL8TSDZ4dksV3YZ72ZYR9dpyT+FepeBv+CY+rXciSeI/EFnZxdTDYRGWQ+29sAH/AICa93LvD3iHHNexw0l5yVl+JUaFSWiR8sofMlWNeWY4Cj5mJ9hjNe0fAf8AYi8VfGGSC8voZNB0N8P9puV/fXC9f3UXB5/vNtHpur66+FH7IXgn4RtFNZ6WL6/ix/pt9iefPqBjav4AYr1FEURquOPSv2bhfwNp05xxOdzTt9iP6v8ARHZSwCTvM474P/A3w/8ABDw8LDQ7JYtwHnXMgDXF0cdXbHP06DsBXaBQUxwRRtye1OUbRX9BYHB0MLSVDDwUYrZJWR6UUkrIMUUUV2AFFFFABRRRQAUUUUAFFFFABRRRQAUUUUAFFFFABRRRQAUUUUAFFFFABRRRQAUUUUAFFFFABRRRQAUUUUAFFFFABRRRQAUUUUAFGM0UUAGKNo9KKKAG7OaXZ9aKKAAIB2pcUUUABUEdKMYooo8wDHNFFFABRRRQAUUUUAFFFFABRRRQAUUUUAFFFFABRRRQAUUUUAFFFFABRRRQAUUUUAFFFFABRRRQAUUUUAFFFFABRRRQAUUUUAf/2Q==;" parent="1" vertex="1">
                    <mxGeometry x="328" y="121.77" width="101" height="38.23" as="geometry"/>
                </mxCell>
                <mxCell id="42" value="&lt;font style=&quot;font-size: 14px&quot;&gt;Technology make it simple&lt;/font&gt;" style="text;strokeColor=none;fillColor=none;html=1;fontSize=24;fontStyle=1;verticalAlign=middle;align=center;" parent="1" vertex="1">
                    <mxGeometry x="429" y="175" width="150" height="90" as="geometry"/>
                </mxCell>
                <mxCell id="47" value="Käyttöohjeet" style="text;strokeColor=none;fillColor=none;html=1;fontSize=24;fontStyle=1;verticalAlign=middle;align=center;shadow=1;" parent="1" vertex="1">
                    <mxGeometry x="303" y="261" width="160" height="30" as="geometry"/>
                </mxCell>
                <mxCell id="50" value="&lt;b&gt;Palveluun&lt;/b&gt;" style="html=1;shadow=0;dashed=0;shape=mxgraph.bootstrap.rrect;rSize=5;strokeColor=none;strokeWidth=1;fillColor=#4ECCC4;fontColor=#FFFFFF;whiteSpace=wrap;align=center;verticalAlign=middle;spacingLeft=0;fontStyle=0;fontSize=16;spacing=5;" parent="1" vertex="1">
                    <mxGeometry x="443" y="566" width="121" height="40" as="geometry"/>
                </mxCell>
                <mxCell id="53" value="" style="verticalLabelPosition=bottom;html=1;verticalAlign=top;strokeWidth=1;align=center;outlineConnect=0;dashed=0;outlineConnect=0;shape=mxgraph.aws3d.flatEdge;fillColor=#000000;aspect=fixed;shadow=1;rotation=120;" parent="1" vertex="1">
                    <mxGeometry x="190" y="70.00000000000003" width="80.31" height="45.75" as="geometry"/>
                </mxCell>
                <mxCell id="54" value="" style="verticalLabelPosition=bottom;html=1;verticalAlign=top;strokeWidth=1;align=center;outlineConnect=0;dashed=0;outlineConnect=0;shape=mxgraph.aws3d.flatEdge;fillColor=#000000;aspect=fixed;shadow=1;rotation=120;" parent="1" vertex="1">
                    <mxGeometry x="190" y="193.00000000000003" width="80.31" height="45.75" as="geometry"/>
                </mxCell>
                <mxCell id="55" value="" style="verticalLabelPosition=bottom;html=1;verticalAlign=top;strokeWidth=1;align=center;outlineConnect=0;dashed=0;outlineConnect=0;shape=mxgraph.aws3d.flatEdge;fillColor=#000000;aspect=fixed;shadow=1;rotation=120;" parent="1" vertex="1">
                    <mxGeometry x="190" y="320" width="80.31" height="45.75" as="geometry"/>
                </mxCell>
                <mxCell id="57" value="" style="verticalLabelPosition=bottom;html=1;verticalAlign=top;strokeWidth=1;align=center;outlineConnect=0;dashed=0;outlineConnect=0;shape=mxgraph.aws3d.flatEdge;fillColor=#000000;aspect=fixed;shadow=1;rotation=120;" parent="1" vertex="1">
                    <mxGeometry x="190" y="450" width="80.31" height="45.75" as="geometry"/>
                </mxCell>
                <mxCell id="59" value="" style="verticalLabelPosition=bottom;html=1;verticalAlign=top;strokeWidth=1;align=center;outlineConnect=0;dashed=0;outlineConnect=0;shape=mxgraph.aws3d.flatEdge;fillColor=#000000;aspect=fixed;shadow=1;rotation=30;" parent="1" vertex="1">
                    <mxGeometry x="180" y="567.13" width="80.31" height="45.75" as="geometry"/>
                </mxCell>
                <mxCell id="69" value="" style="verticalLabelPosition=bottom;html=1;verticalAlign=top;strokeWidth=1;align=center;outlineConnect=0;dashed=0;outlineConnect=0;shape=mxgraph.aws3d.flatEdge;fillColor=#000000;aspect=fixed;shadow=1;rotation=30;" parent="1" vertex="1">
                    <mxGeometry x="790" y="567.13" width="80.31" height="45.75" as="geometry"/>
                </mxCell>
                <mxCell id="71" value="" style="rounded=1;whiteSpace=wrap;html=1;" parent="1" vertex="1">
                    <mxGeometry x="940" y="90" width="420" height="540" as="geometry"/>
                </mxCell>
                <mxCell id="72" value="kahvinkeittimen puhdistusohjelma" style="text;strokeColor=none;fillColor=none;html=1;fontSize=24;fontStyle=1;verticalAlign=middle;align=center;" parent="1" vertex="1">
                    <mxGeometry x="1075" y="176" width="152" height="40" as="geometry"/>
                </mxCell>
                <mxCell id="86" value="" style="shape=image;verticalLabelPosition=bottom;labelBackgroundColor=#ffffff;verticalAlign=top;aspect=fixed;imageAspect=0;image=data:image/jpeg,/9j/4AAQSkZJRgABAQEAYABgAAD/4QAiRXhpZgAATU0AKgAAAAgAAQESAAMAAAABAAEAAAAAAAD/4gKgSUNDX1BST0ZJTEUAAQEAAAKQbGNtcwQwAABtbnRyUkdCIFhZWiAH4wABAAIABQArADhhY3NwQVBQTAAAAAAAAAAAAAAAAAAAAAAAAAAAAAAAAAAA9tYAAQAAAADTLWxjbXMAAAAAAAAAAAAAAAAAAAAAAAAAAAAAAAAAAAAAAAAAAAAAAAAAAAAAAAAAAAAAAAtkZXNjAAABCAAAADhjcHJ0AAABQAAAAE53dHB0AAABkAAAABRjaGFkAAABpAAAACxyWFlaAAAB0AAAABRiWFlaAAAB5AAAABRnWFlaAAAB+AAAABRyVFJDAAACDAAAACBnVFJDAAACLAAAACBiVFJDAAACTAAAACBjaHJtAAACbAAAACRtbHVjAAAAAAAAAAEAAAAMZW5VUwAAABwAAAAcAHMAUgBHAEIAIABiAHUAaQBsAHQALQBpAG4AAG1sdWMAAAAAAAAAAQAAAAxlblVTAAAAMgAAABwATgBvACAAYwBvAHAAeQByAGkAZwBoAHQALAAgAHUAcwBlACAAZgByAGUAZQBsAHkAAAAAWFlaIAAAAAAAAPbWAAEAAAAA0y1zZjMyAAAAAAABDEoAAAXj///zKgAAB5sAAP2H///7ov///aMAAAPYAADAlFhZWiAAAAAAAABvlAAAOO4AAAOQWFlaIAAAAAAAACSdAAAPgwAAtr5YWVogAAAAAAAAYqUAALeQAAAY3nBhcmEAAAAAAAMAAAACZmYAAPKnAAANWQAAE9AAAApbcGFyYQAAAAAAAwAAAAJmZgAA8qcAAA1ZAAAT0AAACltwYXJhAAAAAAADAAAAAmZmAADypwAADVkAABPQAAAKW2Nocm0AAAAAAAMAAAAAo9cAAFR7AABMzQAAmZoAACZmAAAPXP/bAEMAAgEBAgEBAgICAgICAgIDBQMDAwMDBgQEAwUHBgcHBwYHBwgJCwkICAoIBwcKDQoKCwwMDAwHCQ4PDQwOCwwMDP/bAEMBAgICAwMDBgMDBgwIBwgMDAwMDAwMDAwMDAwMDAwMDAwMDAwMDAwMDAwMDAwMDAwMDAwMDAwMDAwMDAwMDAwMDP/AABEIAJQBhwMBIgACEQEDEQH/xAAfAAABBQEBAQEBAQAAAAAAAAAAAQIDBAUGBwgJCgv/xAC1EAACAQMDAgQDBQUEBAAAAX0BAgMABBEFEiExQQYTUWEHInEUMoGRoQgjQrHBFVLR8CQzYnKCCQoWFxgZGiUmJygpKjQ1Njc4OTpDREVGR0hJSlNUVVZXWFlaY2RlZmdoaWpzdHV2d3h5eoOEhYaHiImKkpOUlZaXmJmaoqOkpaanqKmqsrO0tba3uLm6wsPExcbHyMnK0tPU1dbX2Nna4eLj5OXm5+jp6vHy8/T19vf4+fr/xAAfAQADAQEBAQEBAQEBAAAAAAAAAQIDBAUGBwgJCgv/xAC1EQACAQIEBAMEBwUEBAABAncAAQIDEQQFITEGEkFRB2FxEyIygQgUQpGhscEJIzNS8BVictEKFiQ04SXxFxgZGiYnKCkqNTY3ODk6Q0RFRkdISUpTVFVWV1hZWmNkZWZnaGlqc3R1dnd4eXqCg4SFhoeIiYqSk5SVlpeYmZqio6Slpqeoqaqys7S1tre4ubrCw8TFxsfIycrS09TV1tfY2dri4+Tl5ufo6ery8/T19vf4+fr/2gAMAwEAAhEDEQA/AP38ooooAKQjIpajZ8Z5qZNIB4GKilmFurMz7VXkk8frXjX7QX7avhv4JCSxgkGta6g/484JAFgPrLIeF+nU18d/F79qfxp8ZLmWPUNUms7Ficafab4IgM8BtpDNj/ayK/M+K/FLKclk6EX7Wr2i1Zer6HLUxUIadT7h+Iv7XvgH4ZGSLUNegmu4yQbazzcShhwVO3KqQezEV4/4p/4KhaXAzR6L4Z1G7bGVe8uEgU/gpYn8K+NFUKcgAH1AH9OPypQcDHb0r8LzTxuz/EtrCqFGPRbv72efLHVJO0dD6Zuf+Cnvi1zmHw7oUa+kjzMR/L+VRQ/8FPfGO/LaD4dZO4Bmz/Ovmug8mvlZeJnFDd3i5r0tb8hfWq3c+svDn/BUa6jONY8KKys3D2d2VIH+665P4GvUfAX/AAUE+H/i50hvL280G4btqEJRM+zrlcf7xFfn4Bj8aB8owOle9lfjNxHhpJVpKquzX6occZVT11P1k0LxXp/inTY7vTb61vrWQZWa3mWWNgeeqmtCNyVH+NflP4C+JWvfDXVlvNB1W702ZTuYQOTHJ7OucH8a+p/gN/wUft9Ra303xxCtrIxCLqlup8lm/wCmsY5Qn1XcP92v2XhbxmyzMZRw+PXsaj0ve8b+vT5ndTx0JaM+s+/enCqOk63a+INNhvLG5hurW4UPFNC4eOQEZBBFXUGFFfstOpGa5ou68v8AM7OlxaKKK0AKKKKACiiigAooooAKKKKACiiigAooooAKKKKACiiigAooooAKKKKACiiigAooooAKKKKACiiigAooooAKKKKACmE/N3p9QyHBPLccHFTIBtxcLawvJLIqIoLMWbaAB157Yr49/az/AG6bi8u7zw14LuWjhTdHd6qmMyYO1o4j/CoIILnk/wAPrS/t3ftYNJd3ngrw/dskMY26rdxuVPHWBCvIA6sw5/h9a+UAnl/LjbtxwBjGOP0r+a/FLxSmqksoyiVntKX6J/medisU0+SA6WWSWZpJGZpGJZmYksSepJPOT7800LgYxxRRX838zlL33d9fU8zpqFCjLfoBUlnZTaheQ29vFJPcTuESNVJZ3PCqoHXPfPFfZX7NX7AGm6LptrrHjeBdQ1KZRJHp7t+4tAefnA4dvY5Ar6jhTgzMeIa3LgocsVvJ7L/M1pUZVHaJ8Y71GfmU7OGx2PvzRuBGflZT74x/iK/Viw+Gfh7SrIW9voekwQYC+XHaRquPoBivP/jB+xt4K+LFjLs0uDRtT2nyr2wiETI3+0AArj1BGfcV+p47wDx9LDuWFxClNL4Umr+jZ1/2fK10fnODkdc+/rRXWfGP4Naz8DfGM2j6xD90F7e4RT5F1HnqCeQPXuDxXJ4x6/j1r8Nx2CxGEryw+Jjyzjo+n9epwSi4uzDrRiiiuTlW4j1L9nT9qjXvgFrEaxyS3+gSPi50+RzhAeskRP3W7kDrX398NPihpPxb8I2us6JdfarG5TPHDRsOqOOqsD2r8r8Z/nXo37N/7RGpfs/+NVvIWe50i8IXULPcf3iA4Mg7b19euOK/ZvDfxPxGU1Y4DMm5UG7X3cfP07nZhcVKPuyP0wTIX19/WnDpWT4Q8X6f448N2eqaZcpdWN9EJYpFPBBH8/atYdK/ryjWhWgqtJpxeqa2Z7AUUUVsAUUUUAFFFFABRRRQAUUUUAFFFFABRRRQAUUUUAFFFFABRRRQAUUUUAFFFFABRRRQAUUUUAFFFFABRRRQAZrxv9sj49/8KS+Gci2cg/t3WWa1sF6+WcfPKR6KDn3JUdzXsE8uwH6c84wK/Nn9rv4vSfF/43aldRvu03SnbT7IA5VkRiGce7SbznuoFfmPinxa8lyeXsf4lT3V+v4HPianJD1PM5LiSeVpHeR5GYuWZizEk5JJ65JJOfWmgYFAor+JZXnL3n/W54eoVJZWU2o3sNvbxPPcXDhIo1UlncnAUAdc+/Aos7KbUryC3to3muJ3CRRqpLO54CgDrn34r7m/Y5/Y9g+E9jD4i8QxJceJLqMGGJgCunKRnaPWQj7zdjkDivtOC+CcXxFilToLkpr4pdl5efY2o0ZVZWQfsc/seQfCexh8ReIoUuPElxHmGFwCunKRnaP+mhH3m7HIHFfRSKMcY/Ck2K3YdMfWgnYP6Cv7WyPIcHlGEjg8FGyit+/m33Pcp01CNkP3DdQMH0rzjxf+1Z4B8Ca+2l6n4m0+C8VgkgG6RYD0xIyghTnsSMV3Oi65a+I9Mhu7G4iurW4TfHLG4dHB9COK7MPmmDxE3SoVYylHdJptPzDni3ZHK/HL4J6N8c/CEuk6pD8/L29ymBNaSY4ZD6+o6EV+dvxk+DWsfA/xhJpGrQ7uC9rcRqfJvI8/eU/TBbPKngcV+pWxWHzAN2rifjl8E9F+Ofg+bSdWhOeWt7hMebaygcMh9fUdCK/O/EXw5oZ9ReJwqUcTFaPo/J+phiKHOj8vz1orpfi58LtS+Dnjm90PUlHm2pzHMg/d3EZ5jlX2PQjt0rmulfxvjcJVwleWGrxanHR3/r7jxJR5ZWCjP+NFFct2tegH0x/wT1/aCbwt4o/4QvVJv+Jfqzl9PZ2+W3ucZ8oeiuoLcfxA92r7eVuO5r8jbK8m0y9iubeWSCa3kDwuvDIwIYEHqMMMj0r9OP2e/irH8ZPhNo+uI37+eDZdID9yZflkGP8AeGR7Gv6p8EeLJYnCSyfEy1p6w84vp8metga3MuR9Du93FKOlNz8tOU5Wv32J3HgP7fH/AAUp+E3/AATT8E6H4g+LWvX+h6Z4jvX07T5LbTJ74yzrGZCpWFWIwoNfL5/4Ouv2Jwf+SkeIP/CR1P8A+MV82/8AB7Xx+xr8HP8Aa8aTk+5+wS1/NzHH5mV/HO3txn8sVQH9bH/EV3+xP/0UfxB/4SOp/wDxij/iK7/Yn/6KP4g/8JHU/wD4xX8p4+A3jhxuHgvxVg8jGj3H/wARR/woXxx/0Jfir/wUXP8A8RQB/WJ4D/4Of/2Ofib430fw7o/xC1641bX7+DTrKFvCupIJZppFiQbjCAo3MOSQB1r9CU+7z1r+IH9ir4I+MrD9sL4UzXXhHxVDbxeMdHd3bSrhVRVvoSxyV4wuTk8V/aL+0P8AHbQ/2YvgT4u+IXii6+zeH/Buk3GrXzg/MY4VZiq+rNwoA6kgDrQBe+MHxt8I/s/+Ab/xV448S6L4T8N6Wu651LVbxLa2i9izEfMey9T2Br88/jt/wdp/sg/B3WmsdL17xl8QJo22tL4d0Jjbof8ArpdPAGB7FcjnNfzs/wDBTb/gqL8Sv+Conx7v/F3jbU7yPR4ZSugeHIZ2On6Bb5ISONPuvIRy8zDe7HqFCgeG/C74OeLPjfr66T4L8L6/4s1YJ5osdH06e+uNucE7YlZgPUnH1oA/pc8Mf8HmX7L2q6nHBqHhn4vaPDIQvnyaRaTrGD/EwS6LYH+zuPtX2D+y5/wW/wD2W/2w7+zsPBPxi8Lyaxf8Q6Vq7SaPfSMONqx3Kxlj7Luz2Jr+Srxb/wAE0f2hvA2lvfav8D/ixY6fCPMe4l8KXvlxJjO5isZCj3OB714zLBNpV40TLNb3MDkFGBV4WX2zwQfyoA/vsU4T73Tqa+D/AI8/8HJP7JX7NXxp8TeAfF/jzXNP8TeD9Rm0rU7ePwxqMyRTxEq4DrCVYBsjcpIOMgkV7x/wTAvJr7/gnH8Cbi4mmnuJvAeiNJLK5aSQ/Y4slmPJPua/kj/4LanP/BW/9ov/ALHvU/8A0c1AH9HA/wCDrv8AYnx/yUbxB/4SWp//ABij/iK7/Yn/AOij+IP/AAkdT/8AjFfyb+GPBuqeNLqS30jS9Q1S4iTzZI7O2e4aNMgbyqAkAEgEnjJFbB+AvjgH/kS/FX/gnuf/AIigD+rD/iK7/Yn/AOij+IP/AAkdT/8AjFfQH7BH/BXn4G/8FMPEHiPTfg/4m1LX7rwpBBc6mlzo91YeTHMziMjzo13ZKEcV/Gf/AMKF8cf9CX4q/wDBRc//ABFft9/wZY/D7XvA3xg+PDa3omsaTHc6PowhN7Zy26uRcXOdu9QGIypOOmaAP1o/bt/4LI/AX/gmz480Pw38XPFGpeH9W8RWTajYxQaLeXyyQCQxli0MbBfmB4JBrwkf8HXn7E7D/ko3iD/wkdT/APjFfmn/AMHtAx+2D8G8f9CVOP8AyfevxZ03TZtVvoba3t5bq4uJVjihiQu8zHACqByWJIAA7mgD+tIf8HW/7E7Mv/FyNfXJ+83hLVAB/wCQK9k/Z/8A+C6/7J/7TmsWOneFfjZ4R/tXUCBb2WrNNpM0pPAVRcpGGY/3QSfav44vEHwm8T+ELA3mreHNf0uzVxGbi60+WCMMeg3MoGfasF2YLyRzxjOQP8+tAH99sFws8SusqsrDcrKdwI9Qeh/CrC8KK/kn/wCCM3/Bw/8AE7/gm74003w34s1DVPHnwaupUiu9FvJmubrQ0ZgGmsHZtylVGfIJ8thnAVvmP9V/we+Lvh34+fDLQfGXhHV7XXvDPiSzjv8ATr+0fdHcwuoZW9QexU8g5BGeKAPJP2+f+CnXwf8A+CZ/h7w9q/xe1/UNB0/xRdS2enyWul3F95skSB3B8lW24B79a+adP/4Opv2MdWvre1tviLrz3F1KkUat4T1FQWbhckwgDJxyeK+U/wDg91P/ABjj8C+vPiPUv/SSOv55fhyxbx7ouST/AKfb/wDo1aAP73LO5W8to5o23RyqHU4xkEZFSVT0A50Sz/64p/6CKuHpQB8g/tv/APBcf9nT/gnj8ZE8BfFTxdqmheJpdOi1VLe30K8vkeCRpFU74Y2XJMbDGQRXM/swf8HEP7K/7Xvx08O/DfwH441jVfFniidrXTbWbw5qNss7pE8rAySQhV+VGOWI6V+Jn/B5Jz/wVh0n/sQtMH/kzef4187f8G5p/wCN1XwB/wCw1df+m+6oA/sfVtyg+oooT7g+lFAHnn7U3xCHwv8Agd4g1VW23H2Y29vg7SZJPkXB9Ruz+FfmUFwBuxlf/wBVfbP/AAU/8VNp/wAO/D2kpj/iY35uHGeqwqTj8Sw/KvicDA9frX8heOGaSxGdxwd/dpxX3vU8nHyvNRAcVJa2ct/dR28EMlxNMyqkSKS7knAVAOpJ557UWdlNqF5Db28Uk9xO4RI1Ulnc8Kqgdc988V9y/sd/seQ/CbT4fEXiKKO58R3CboYiAV05SPur6ynu3bkDivh+CuC8ZxHi/Z0VyU18Uuy8vN9Dmo0ZVHZC/sd/seW/wlsYvEXiKKO48TXCZjhYApp4P8K/9NCOrduQOK+iiilfur0x07UmwN/CvTHTrSM233x2Ff2xkOQ4PKMJHB4OPLGPXq33fme7TpqEbCGTaD+WB3r5l/bN/bKXwTDceE/ClwsmuTKYry8iw66eG7KOjSn07detH7Zv7ZY8EJceFfCdwsmuSDZd3sWHGnA9lHRpSO3Ye9fFUsrXDMzNvaZ87nJbex/VifU81+LeJ3igqLllGUy9/aU108o92+rOHFYtL3Y7jpLiS5naVpCzSEsXLFmYnkkk8kn1PJr2T9k39rK7+A2tR6bqTTXXhW8fdJHklrI5wZY/9nP3l/Gu+/ZC/YjXxHbQ+JvGlmfscq+ZYaZKCvmqcESzc9MHhD16mvRviN/wTz8LeMPGem6hpbf2DYrKTqFnaoQtyo5GztGSepxyOmK+J4V8P+KqFOnn2CfLUbT5Xo3FvVtfo9TGjh6t1NHvfh/xDZ+J9Gt9QsLiG6sryMSwzRnKyKe4q7t8z7wznrms/wAL+F9P8IaDa6bptnBZ2NnGI4YY12qi+mP555PetEtgfrX9aUVUdNKtbm0vbv1PWR8t/wDBTnwRDN4K0HxGiqt3p959jY4+/HIrNg/RkGPqa+Lsba+0/wDgpz44gtPAWh+HVKteahe/amUn/VxxowBP1dl/I18WA5Hf8etfxn4yew/1mq+x35Y83+K2p4uM/iBRRRX5WcoYwa+tP+CYnxALXHiDwvNL3XUbZWPc/LJj/wAhn86+S69a/Ye8Tf8ACOftL+H9zbY74TWTknqHiLKP++1Ar7jw5zR4DiHDVfsuXK/R/wDBNsPLlqI/RxeFFOHSmZ3AU8cCv7ti9dD3j8T/APg9s/5M2+Df/Y53H/pDLX84Ph9v+J5Z/NtxOmP++xX9H3/B7Z/yZt8G/wDsc7j/ANIZa/m8tbhrSZZE+WSMgowOCpzkN+lWB/e34MmQeEdK+dB/ocPBIGPkFannp/z0X/voV/F5F/wXR/a8tY1jj/aG+JiJGAqqNU4UDgCnf8P2f2wP+jiPib/4NP8A61AH9oKurHqp/rX52/8AB09d6xaf8EXPiZ/ZPnbZ73SVv9gz/o32+HfkemRH+lfm7/wbIf8ABT39oL9rL/gp/Z+EfiR8XPG3jHw3J4X1O7bTtTvjLCZUEJSTGAMjJweoyfWv3t/az/Zy0H9sL9mrxx8MfEiK+i+OdIn0qdwAzQM6EJKoPG+Nwjr/ALUYPpQB/CiWbzMHI5PHpX9Yf/BrLcfBg/8ABLnwpF8N5NCXxu/nv48WIj+1m1LzmGbjJEhjEZj8vA2BcYO7cT/NT+3f+wX8QP8Agnj+0NrPw58faU1rfafIxsr9EJtNatc/JdW7kYaNhhuuU3bW5BFea/DP4reJvg14wg17wj4g1vwvrlscw3+lX8ljcw9DxIhU4OBx0OKAP704hviViGzgHnGR+XH5V4l+09/wTp+B/wC2VptzZ/Er4X+DPFMl0PmvJ9OSPUF64KXKYmUj2bBr+bP9jT/g67/al/Zoaw0/xZqel/GDw5attkt/EcJXUpEJztS+ixJvPZpVm4GMd6/b7/glx/wcRfA3/gppqNt4Xtby58A/EmYYXw3rbqpvyOT9knUlJ+P4MrJxnZjmgD7X+EHwq0X4GfCrw54P8OwS23h/wrp1vpenxSTNM0VvBGscalmJLYVRySSTz1r+ND/gtr/ylv8A2iv+x81P/wBHNX9qZ5i3cdOtfxWf8Ftv+UuH7Rf/AGPmp/8Ao5qAPuz/AIMq2/42I/ErJBH/AAryXr2/4mViP5V/TMZ0/wCei/8AfQr+FX9mf9rz4mfsc+L7zXvhb401/wAD61qVkdPurzSbnyZZrcurmNsA5Xcqn6qD1Fe1N/wXZ/a+3HH7Q/xNAzx/xNP/AK1AH9oHnr/z0X/voU5MFcjH1r+L3/h+x+2B/wBHDfE//wAGv/2Nf0vf8G6H7QfjT9p3/gkp8OfGnj/xNq3i7xVql1q63epajMJbq4WLU7qJFJ77UVVHsB2xQB+Tn/B7X/yeH8HP+xLn/wDS96/NH/gk8M/8FOPgCP8AqoOiD/ydir9Lv+D2vj9sL4Of9iXP/wCl71+aP/BJ7/lJz8AP+yg6H/6XRUAf243dhBqVo8NxDDcQyAh45EDK46cg8Gvza/4LHf8ABu38J/2+/hPrOt+A/DOg/D/4vafbvPpmp6XbLZ2esOoZvs95FGBG285AlC70JDEsoK1+lKdKNoGeB69KAP4FvEugX3hLxBfaXqdrPY6hptw9tdWk6FJLeVGKujA8gqwIINf0G/8ABmN+3ndeKvAfj79nzXtSkm/4RWP/AISrwzDKf9VZyS+VfQqf7izSW8oA7zye9flj/wAHCXw/s/hr/wAFl/j7ptjGsEM3iBNTKqoAMl5bQXch49XnY/UmvY/+DSzxNcaF/wAFmPCVrD8sWt+HtYspxngqtq04+uDCtAH6B/8AB7t/ybj8Cv8AsY9S/wDSSKv54/hx/wAj9ov/AF/2/wD6NSv6HP8Ag914/Zx+BX/Yx6l/6SRV/PH8OP8AkftF/wCv+3/9GpQB/etoH/IEs/8Arin/AKCKuHpVPQP+QJZ/9cU/9BFXD0oA/lo/4PI/+UsGk/8AYhaZ/wClF5Xzr/wbm/8AKav4A/8AYauv/Tfc19Ff8Hkf/KWDSf8AsQtM/wDSi8r51/4Nzf8AlNX8Af8AsNXX/pvuaAP7IE+4PpRQn3B9KKAPjf8A4KnTM3iLwZD/AA+RdP8Ajuir5QHSvq7/AIKmjHinwa3Vfs10P/H4q+UVOVr+H/Fh/wDGUYlvurf+Ao8PGfxWfXP/AATl+GPhPUbS68Qtdw6h4otXMX2aQD/iWoejKvUl/wC/0/hGCDn67iAMS9On51+U/wAOviNq/wALPFcGs6Lctb31qQCBzHID/A47ow6+/NfoZ+zp+0hpX7QXhhbi1b7PqdsFW+si3zwOQMMOeUPYjrX7V4PcXZZVwayhRVOrHf8Avvvfv5Hdg60bcnU9Org/2lfEmpeEfgV4p1DR42a/tbCRo2UZMQPDyAd9i5fHfbiu8UHZVe/sotQs5YJkWSKZTG6N0cHgg1+05hh5V8NUoU5cspJpPs2tzskm1ZH5JzyvcySNKzO8jF3LtuLMeSSe5969g/Ya8H6D4z+PFrDrywzJbQPdWkMuPLuJ0ZMBgeG2glhnr+FdB+2T+x5N8I7qbxF4ehkl8MTNuuIQCW0sk9TjkxE8ccjgdK8DsNRutI1KG7tJpre8tiJI5IjtkidTlWBHQ/Sv4Yq5fieG89g81p83s5Xd9pq97rv39TxHH2VS8z9bI4lRRtVc4BOB1qQoHXlR0546189/sffthQ/GPTY9B12aO18TW8eEYHauoIP+Wij+8P4l9a+hFOR+Ff2xkGfYPNsJHGYKV4vp2fn5ntwmpL3Qxz2rj/jN8YtH+Cfg+41bWLny1XKwwoQ01zIeiIvc/oOtN+M/xj0f4I+D5tX1i4aNV+WGFPmmuJD0RF7n9B1r87fjb8bNa+PHjCXVNTdljXKWtqjlo7NM9B6nHU96+I8Q/ETD5BReHw7Uq8tl282YYjERpK3Ur/Gb4ual8bfH11r2rNzJhILdXLpaxKTtjHr1ycdTk1zdtYzX1x5MEclxMxAURozGQn0Xkn+VdV8FfgtrHxx8ZxaRpEflrGwlubpl/dWkeeXY9M9go69a/Qb4I/s4+G/gdokNvpVjG11sAnvpUDXFw2BklsZAJ52g4FfgHCvAOa8W155jipcsJP3pNXbf9086jh51XzS2Pz4b4A+OI9O+1N4R8RfZQu4yfYn4H0xn8q5S7tJLK7a3mimhmXgxSgpID/ukA/ga/XEx/LivLv2kPgx4P+JHgi/uPE0VtY/Y42caqMRzWoA4bd1IB42nIb0r7jPvAenRwcqmBxT5oq/vJJO3TTY6KmBSjeO5+bfT/wCuK6b4KXjad8ZfCcy5/d6xaHg9vPQH88n86529iigvJo4JvtECOVjl2GPzVB4baeVyOcdq3vg9C1x8WvCsS8mTV7Rf/JhDX4LlN45nST39pFeXxLbyPPp/Ej9UoDlB9akqO3/1Y+tSV/olHZH0Edj8T/8Ag9s/5M2+Df8A2Odx/wCkMtfzf6Vbrc6hDEzMokdVJBAwueevf0Hev6Qv+D2iJj+xp8HJNp8qPxtKrtjgE2MpA/EBvyr+b3SrprG/gmXdvhdXUKecgg/yqij+j7RP+DK34H6rotndN8VviorXECSkCGxAG5Qf+efvVv8A4gnfgf8A9FY+Kv8A36sf/jVfYv7OH/Bfv9k34n/BHwxrFx8avBHhe8utMgNzpWsX/wBjvdOm8td8LxuozsbK71ypxkEiu5X/AILefslbf+ThvhV+GuRmgDwb/gmL/wAG23wy/wCCXf7T8fxR8J+PPHXiDVodLuNL+y6qtr9mZJ9u4/u4w24bBX6QbFkT5lByMHIr5i8Pf8Flv2V/GHiHT9L0349fDHUNT1S5S0tLaHWEaW4ldgqIi9WJZgPfNdj/AMFD/wBp/U/2Nf2KfiT8VNI0201nUPAujyapBYXbssN0yMMoxT5lyCRkZweoNAGt+1f+xZ8Lf24vAf8Awi/xW8E6L4y0eGQzQJewnzrRyNvmQSriSJ8d42Ge4r8iP2vv+DLXwX4jM198EPiVq3haaVyw0jxTD/aNkAQ5CrcRBJkAO0Aur8dST19v/ZK/4O9/2aPjlZWFp8QLfxR8JdbmCrc/b7U6lpcbkDO25gBcrnPLwpxyQOg+2vAP/BWH9mX4l2H2rSfjz8JZo9oZvO8T2tqw+qzOh/MZoA/lK/4KDf8ABDz9ob/gmvHNqnj/AMIi+8IxyrEninQ5/t2kkt93e20SQZPyjzkQFuhPFfKPh/xBeeF9Zs9S0+6utPv7CZbi1ubaQxTW8iEFJI2BBVlYZBBzX9Wv/Ba//gtB+zf8Pv2C/id4TtPiB4J+I3ivxx4fvND0zQdDv4NVZ5bmF40nmMTOkUcR+fexzujG3qK/k6dsyfLx2oA/so/4IGft46x/wUP/AOCang3xt4mk+0eLtLlm8Pa7OWJa8urXavnn0aWJopGH952r+Xr/AILaHd/wVu/aKP8A1Pmp9R/02av6DP8Ag0M+H174N/4JA2V5eQyRx+KPF+qapbBlI3xAQW2eR0LW7HI4Oa/n1/4LboU/4K3/ALRXBB/4TvUzz3BmbmgD0b/ggd/wSt8Jf8Faf2nfFngXxh4i8Q+G7Hw/4YfXYbjSFhM0si3VvFsYSgjbiYnp2r9Zh/wZO/A/H/JWPir/AN+7D/41X5t/8GuX7d/w0/YI/b71zVvilr8fhfQfF3hWfQ7fVbhSbW0uftFtcIZioJVWWJ1DEYyRk1/REn/Bbz9kkov/ABkL8K+n/QcjNAHwF/xBO/A//orHxV/792P/AMar9Mf+Cc37DWhf8E3f2SvDfwf8M6xq2vaP4amu5Ib3UxH9pkNxczXLbxGAoAMpUcdAK43/AIfefsk/9HC/Cv8A8Hcdek/s1/t3fB39sPVNVtfhf8R/CPjq60ONJb5NHv1uWtUkLBC4A4BKt/3zQB+Cn/B7T/yeD8G/+xLn6/8AX+9fml/wSe/5Sc/AD/soOh/+l0Vfpb/we0f8ngfBv/sSp/8A0uevy/8A+Ca/jbSPhp/wUE+CviLX9RtdH0TRPG2lXt/fXLbYbWCO7iZ3dv4QqgnPbFAH9xCdKhuZNiNucouGJO7GB3J9AOtfJuu/8F3P2Q/Ddj9ouP2gvhvJGOStrqTXbkDOdqxozE9sV+X3/BX/AP4O1dA8c/CXWvh3+zPba1JeeIIHtL7xrqFv9iFlC3yt9ghYmQyMuV82ULsPKqSVYAH5U/8ABbP4+6T+0v8A8FWPjl4x0O8ivtF1DxK9pZXMJylzDaRR2iyKe6sIAR7Yr6Y/4NFfh/deLf8Agr9pOqQxSPB4V8LatqEzgfJH5kQtVDfVpxX5ibC0oHH3tqljx+o6dznnmv6af+DQn/gnPefs4fsq6/8AGjxPpf2PxD8XvJTRVuIttxb6NCS0bAnotxITJxjcsMJ9MAHEf8HudtI/7NPwNmVd0MfibUFdvRjaIQPxAb8q/nZ8Haguk+KdOunxttrmKUg99rg//Xr+rD/g68/ZcuP2hv8AglHrWu6bpzahqnwu1i18TgISXW0G63uiMc4EU29vRY81/J9kxv8Ae/Ed6AP74fAGsweI/BOj6hayrNa3llDPFIhysiNGrKQfQgg1sHpX4k/8EF/+DlL4TzfsqeF/hP8AHbxVH4H8ZeA7CPSrDXNUeRrDXrOIBIC8+GEU6JhGEmAwjDhtx2D7Q/aE/wCDir9kf4A/DS+19fjB4d8Z3kEZNtpHhmX+0L6/cdERV+RcnA3O6LjJ3Z4oA/Dv/g8D8UW+v/8ABXV7OHd52i+DdKs7jJyA7GeYD2+SVD+NeFf8G5UbS/8ABar4C7EZvL1e7kIUZKgaddk14N+3f+1/r37en7Wvjn4s+Io1t9Q8Y6m1ylojbo7G2UBLe3VupEcSIu7uVz3r9AP+DQH9le7+MP8AwUxm+IUkX/Em+FOhXF48uD/x+XaNawR+h/dtO/tsFAH9TCjaoHpRQvAooA+UP+Co/h55vD/hPVkjZlt7mW0dh28xQy/mUr42Nfo1+3F4Ek8efs8a0luhe60zZqEQA5zG2T/47ur85QQR8vC9hX8c+NmXTw/EDxH2akU16rRnj46Nql/ICM4/2entW58O/iPrHws8WQa1ot01vfWrDIHKSA/wOP7pHX35rDoIzj/Z6e1fkuFxlXDVVWotqSd7re/c5FJrVH6Vfs4/tH6X+0D4VW4tXW21S1ULfWLN88DEcMPVD2I65r0wcGvyl+HfxF1j4X+K7fWdFunt76zbkDlJQTnY4/uEdffmv0N/Zy/aS0n9oLwot1bsLbUrdAL2yLfPA3973Q9j3Ff1/wCG/iVSzqjHBY5qNeK36TXf17o9fC4lTXLLc9FvbKLULWWGeOOaGYFWjcfKykYINfCn7Yv7HE3wkupPEXhuGSbwzId00IBZtKJPUAcmM+vVeAOK+8VHy1Bf2UOo20tvcRxzQ3AKMjjKuCOQa+t4y4MwfEODdDEJKovhl1T/AFXdG1ajGorM/JfTtQuNKvobq0mmt7u2cTRSQth4nByrA+uOOO1fXPwu/wCClVrZeCFh8Uaff3GtWqbUks4wYr7A4LE/cb1964P9sb9jyX4R3EniTw7E03heVi88OCTpbE9eOfKOcDHK8DpXz6/zsd3XvkV/KFPMuIOCMfPCwbi30avGS6Nf5nlc06ErI7L43/G/Wvjv4ym1TU5JFjUlbS1Vjss0zwAOm7GASOtM+CvwV1r46+M00nSIiq8G6umU+VaR55dj0z2Cjr1o+CnwU1r47eMo9I0mIheDdXTA+VaR55dj69go69a/RT4MfBbRfgn4Pg0nSINqqd887D97dSY5Zzj8h26DFe7wPwNjuKsbLMszk3RveTe8n2Xl6aF0cPKtL2k9g+DHwY0b4JeDodJ0m3VVH7y4nYfvrqTuzH+Q6DoK7HOKFTAHH51R8T+JbLwno1xqGoXENrZ2qF5ZZGChQBn/ACK/rfD0MNgMMqVJKMIKy6JJfoeukoryG+JvEdn4U0W61DULqOzsbSMyzTSOFWNQO5/yc1+f/wC1j+1be/HnWmsNPaW18L2MmYYG+WS8fs8gHGSOVXpg88079rL9rG8+Pmstp+mmS18LWcmYIOj3r9pJPqOVXpg8814z90Y+o/PrX8teJ/ig8xnLK8rl+4WkpfzPy8jysRjLvkjsBOTXpX7IHhf/AISv9pDwtbsu6G3ujdt7eVG0gP8A32FFea19Mf8ABM3wL/a3xF1rxFIv7nSbZbSFufvy8t+QQ/8AfdfnPAOWzzDP8LRtpzJtf3Vq2c1CPNUR9u/dA/OnjpTfvD8KcvSv73jue+fEP/BfX/gmzqn/AAU9/YI1Twb4Za2/4Tbw3qEfiTw/HO6ol3cwoyNbFjwhlhlkRWPCsULcZr+Rf40fs9+Ov2b/ABneeHfH3g/xF4Q1izdo5rTVrCS1YFTgld2AwyOGUlT1GRX94jRq/wB5VP1H+fWsXx18NfD/AMUNFfTfEuh6P4h02Q7mtNTso7uBj7pIpX9KsD+CPGO4/wC+hRt/3f8AvoV/dIf2Hfgv/wBEj+GP/hKWH/xqj/hh34L/APRI/hj/AOEpYf8AxqgD+K39iNSP2yfhKOP3njPRh25H2+HtX9j3/BVH9n3xJ+1V/wAE7Pi/8O/CFvb3nifxd4euLDT4LidYo5Zjgqpc/KuccZIGep713Vh+xb8H9KvoLq1+FPw1trm1lSeGWLwtYpJFIjBkdWEWQysAQRyCM16aFG3Ht6UAfwvftKfsQfF39jnxRcaT8S/h74q8FXVtJ5Pm6hZMtrI2cZjuFzDIvoyOwPBGc15WyGN9pVVYc4PykfnX98nifwjpnjXQ7rS9Y0+x1bTL5PKuLO8t0uIJ0/uujAqw9iMV4H4r/wCCRH7LnjXUGu9V+APwjup2YsX/AOEZtY+SefuoBQB/E0jM6ryAV54IwB3P17V9i/8ABLT/AIIlfGL/AIKdfFDTLfR/D+peHPh/HcRnWPFuo2xgs7WDcN4g3DNxMVGFRAQCRuKj5q/qo8Df8EoP2ZvhzqEd3ovwF+EtjPGSVkXwzaOQeuRujNe/WOmwadYQ2sEMUNvboI4oo0CpGoGAqqOAAOMDjFAHH/s6/Afw7+zB8DPCfw98KWv2Pw34P0uDSrCIncxjjQLlvVmILMe7MSeSTX87/wDwc/8A/BFb4ieEf2u/Enx6+HnhfVvFfgPx40d9rQ0y3a7uNA1AII5mkhQF/Il2CXzNrAO0gO0Bd39LFIFAGMD8qAP4Dri0lsLiSOZJIGjO1lYbXX8Cc1CyfMfu9f7wr+7zxt+y78NfiVrkmp+Ivh74H17UpBhrrUdAtbqZh6F5Iyx/Osf/AIYd+C//AESP4Y/+EpYf/GqAP4W9n+7/AN9Cv3Q/4MiJVi+Mv7QG5l+bRdGGCwG4+fdYx06V+6n/AAw78F/+iR/DH/wlLD/41XT/AA2+Avgf4OXV1P4R8G+FPC018ix3MmkaRb2LXKqSVDmJFLAFmIBzjcfWgD+eL/g9mYN+2N8Hcsvy+DJuNwzzey9ua/FIxbDglQR1+YV/eL8RP2efAXxe1KC88WeCfCPie7tYjBBPq2i217JDGTuKK0qMQpJJwOM81zv/AAw78F/+iR/DH/wlLD/41QB/C4CV6N+TCuv+EvwF8a/HnxBDpPgnwj4m8XatdMI47bR9OlvJCxPBxGrcepOAO5r+3T/hh34L/wDRI/hj/wCEpYf/ABqu88FfD/QvhvocemeHdF0rQdNi+5aadZx2sCfRIwFH5UAfz+/8EcP+DTTX9S8X6T8RP2oIIdJ0fTpFurbwHFOs11fsMFPtzplIohgZhQszYwzIOK/oS0zSrXSNNgtLW1t7W1t4lhighjCRxIqhVVVAwFAAAA4AAFTCNQuNq4+lOoAyvFfhfTfGvhzUtH1azg1DS9WtpbG9tp1Dw3EMqMkkbg8MrKxBBBHNfyvf8Fr/APg3D+I37BvxH1rxh8L/AA/rXjv4LXcr3dvNp8TXd/4aV2J+z3cagyGNM4W4wykAbirEiv6tdoz0H5UbASOBxyOOlAH8BrpJbzyKSY2Q/MD8pz9Dg/h2ph3D+IhewzjPev7hPiv/AME1v2ffjrrE2oeL/gv8MfEGoTuzyXV34ctWmkYnJLPt3MSSSSTya5vw7/wR1/ZX8J6jHeaf+z58JIbiI5Vx4Ztm2n6MpFAH8iv7EP8AwTd+MX/BQv4jW3hz4WeCdW1tmdUvNVlie30nS1/ia5uWHlxjBJxksw+6hPFf1qf8Ei/+CXfhb/glJ+yfZ+ANFuF1rxBfyDU/E2u+R5MmrXxGCQvLLCgG2NCTgbieXbP0r4M8B6L8PPDFpovh/R9L0PR7FCltYafaR21tbqTuISNAFUEkngdTmtXy1P8ACPyoAcOBRRRQBV1XTYtUs57eaNZYbmMxSowyrKQQQfwNfl78bvhnN8Hvilq+gzRyeXaXJNqzf8tYD80bf98HB/2lr9TCM/yr5k/4KGfAVvGXhOPxfpsPmaloC7btEB3T2uSx+uwkt9C3oK/H/GDhSeaZT9Zw6vUpe98upy4ulzwv2PiKijpRX8b+v9dzxQPP4dPatv4dfEXV/hd4tt9a0W5a3vrNhkDlJQf4HHdSv61iUHnHt09q6MLi6uGqxrUXaSd01vcak1qj9Kv2cv2kNJ/aA8JJc2rra6nbIBfWJb95A394eqHnBHUYr0sDb/Wvyl+HfxG1b4WeLINZ0W6Nvf2rA4OdsoP8DL0Klf1r9Df2cv2kNJ/aB8MLPasLXVLVAL2xY/PbucYPuh7EV/X3hv4lUs6oxweOajiIrfpPz9e6PXwuJU1yy3PRr6yh1G0lt5445YZlKNG/3XB65/CvmPxr/wAE0dC1nxPJeaRrl5o+nTSbmsxbLMsQJJxE3GB2wQwAr6jUce9DLzX6DnnC+WZvGMcyoqfLs30OmdKM9Gch8HPgpofwQ8JRaRosG2MNvnmkw01y+PvO2Bk/oO2K64cClHC1m+J/EVn4U0W61DULqGzsbSMyTSyvtWNR6n/DnNelQo4fA4dUqSUKcFp0SS7lK0V5B4o8RWfhTRbrUNQuobOxtIzLNNLJtWNR6n/DnNfAH7WP7V198etXk07T2ltvC9q/7qBvlkvX7PKBxyOVXpg880v7V/7WN98fdZbT7BprPwvYyfuYGysl6/aSUDjkcqvTB55rxonn8x+fWv5a8T/E+WYzlleVytQWkpfzPsvI8vE4u75I7Aevr1/Xr+dFFFfhUby02/rc8/zDOM/d+U9OpYYB/riv0a/Yy+E7fCj4HabDcR7dQ1X/AImF0COVaQAqp/3UCjB75r5G/Yv+Az/Gj4pw3F1Du0LQyLm8LL8szg5SD33H5z/srjvX6JRooVflXgY6V/THgfws4xlneJjp8MPTq/0PVwFG37zuPx0pwppb5vrTh0r+j4noHyr/AMFRviV8QfCOn/BXw78OfHl/8O9S+JHxLsvCt9rVlpdlqVxb2sljqE7hI7yOSEkvbxjlcgZp1tb+Nv2B/hR48+InxU/aA8R/FLQ9H0Zp7a117w/pOlwWVwgYoRJp1qkjeYxEZDhgM5HSuN/4LOaDpPitP2atP17U7zRNHuvjRpkV1f2mrSaTcWqnTdUCsl1E6vCS+1dysp+bbn5ue5tv2f8AwP8ABX9nr4qR+C/FXi7xJc6l4XvVnj1jxzf+JWh2W023y1urmXy+XwTHtLYUHOBVAXvgP/wUu+G3xD/YY0H43+JvF3hrwz4fm02xfXbmW5ZLTSdQmgieS0DyKjSOJJVjVVUuxIwDmuJ/bH/4KDaB8Q/+CXnxo+J/wK+IFnqGoeENGulh1PTwPtGj30YRhHLDMm6KUbgdk0ecMDtIr5k+I2vapqvwP/4Jr6toOseAYdIXSobezvvFcE9/4dTW28Oxppyy+RJHi4JS7SDc6kTDaMtgVoft+fs0/ErwT+zl+1z8T/H/AIr+FtzeeKvhZFpGp6N4P0+8sopLi1mlkgv7lbi4l3SeTK8IIUFkjQE4AAAPrX9ur9tHRf2bPCXhW3u/i14O+GviLXM3YGraHca7Nf2i28gdo7O3ZZV2TPAxlPyBVZTgsMe2/AX4iWfxX+C3hXxJp/iTRfGFprGl29wNb0cbdP1RmjUtPCu5tkbMCQhZioOCSRmvm/4j/tH+MvH37T+h/Dj4ZeIvhn4ZtYPh3F40vPFeuWn9rz3ltLdPbpDZQpcQo0KGFnmmaVlXzYhtO4EeV/8ABLLwT4++KX7Alxa/D74saJ4OvbL4peMS+s6T4cttV03Urb+2b0BLaCWUrDbvIwlQq7YUBQxByQD3D/goR8efHvhL4k/Bj4W/D/xFp3gXVvjPr17pc3iq7sI9Qk0W3srCS9kW1gkzDJdTCPZH5oZRh22PgKOy+Bfwx8efs3R+INR+I3x01D4jeE7exN2s3iHQtO0y40Xy/mlla5tFijeHYCSHjJXrvx8tc148+AfhHxp8GdL+F/7TPjjwz8TtQ8UaqZ9HuNStIPDd1c3EO2SJLKO3lWRbiL5nDwMJMORnGRXzF4o/a11r/gml8V/jh4JsfHGpfG7wH8P/AIXHx1Bp/ifVFvtS8IXv21bRNOutRCtJJbTRs0oEyvPHHE/JUg0AfXXwd/4KYfAz9oO616Pwf8TPD+qSeGtMk1vUIsS27x2KZLXaCZEM0AxzJGGQZ+9yK9E1v9oXwZoHwq03xzeeKNHt/CGspZNYaqbkfZbsXrxJaFH/AIvOeaNUAzu3r718Qa3L4707/gpn+yqvxB+Inwl8SavqWn+JTFpXhXRWsZrWyk0YyybXkupWmsvNih2kxruKRtxyBwH7NXh2/wDEP7TfgP8AZCvo57jRP2aPGWq+O9SedXKPosO248LReY33lWXURkdv7KIwB0APtz43/wDBTD4F/s5fEubwl4y+Jnh3RPEFukb3dpI0s39miTiNrp4kZLYN1BmKZHI4Oa6T46ftq/Cz9mjQ9I1Lx1498OeG7PxBA8+lNdXQJ1VU8ot9mVcmY4mj/wBXu++uM5r51/4JneIPAfh79mn43J4uuNJsdY0v4g+K5vicNeeFWDPf3DpJe7+Bbvp5t9nmHZ5Ozb8uK8p/4J26ALw/sN/b9PkNva+DfHN1oKahFvmtNON5p/8AZrKHGVIsXgVTgMFbHAOKAPvP9nb9p7wJ+1h4E/4Sb4d+KNL8VaGtw9m9xaMwaCdMb4pUdVkhkUHJR1DYIriv2hv+CkXwR/ZW8bjw38QPiRoXh3XEtlvZ7NhLPJZW752z3AiR/s8R2tiSYopwfSuF/ZEs7bRf+Cl37W1rZQxWtrdS+EdTnSJdqSXMumTRySkDgyMIYtzdTtXJOBXH/Fv9oHxz8Y/j18fvB/h3xF8H/hp4R+EllZWXiK/8WaOdTutba7037SZZU+026Q2SxTCINIX8xkkwQqkMAfQvx1/bm+Ef7NGl6LeePPiB4Z8NweJLV7zSPtF1ltXiQRlmtlUFpsCWM/Jk/vAa851H/gsp+zLpnh+x1ST4zeFpINSadY4LcTz3tv5JAlae2SNpoFTcNxmRAvrkGvkj/gnlKPE+vf8ABN24vo4bqaH4JeI5EaVN5t3WDRFVwSOGCkjIwcE+tfSn7IHhzTo/+Cq37Yd9HY2a6hM/g6KW5WALNLH/AGOxKF8ZYdDgnqM0Ae2fEb9uP4R/CL4XeH/G3iT4jeEdH8I+LIfP0XVp9ST7HqyeSZx5EgysrNCC6quS2MDNebv/AMFlP2Zz4a/tX/hb3htk+1mx+wCO5OqiYIJSDYCL7WFCEMXMIUL82SK+W/2VfBOk2K/sa+HmtbW40nw38WviRZadDNAkkdrHajxCluFUghSgRdpGNuBjFfSvw78Laa3/AAWY+J2qf2bY/wBqR/Cfw2gvTbobhVbUtXDL5mN3IjQHnnYvoMAHqOt/t1fCPw7+zxp3xYuviB4bHw71gxR2Gtx3PmW988j7Eji2gs8rOCnlhd24FcAg1x3iv/gpz8K7j9jvx58YPCHjLQ/Emh+C7a6STY0sZS+ih3x2k8ewTQu7lF2sgb94DwDx8rfCD9oDWvgJd+Kvhz4CsfCthrXxH/aV8T+HdE1DxBbPJovhrFqNTmlMcbIWmcrMsMSum+WbBI5qbwj/AG1/wuL9vDT9W8ZeDfHGvSfC/Tn1K48L6b9hVbtdP1aLZcW/2i4xdLGiA5YHyzCCpOaAPUviN/wW5+HPgf4Y/AzX4Na0C7PxU1+y0nVN73KJpEDWzzXcy/uv3hikEcYX+MygjgHH0R8PfjXpuu/Ev4gM3xG8Napo+hWGmai2lJCLaXwtbzWrTefdzs/zrOo81Swj2Ih4PJr5U/aA8X6bqH7OP7BusQalYyaRcfETwk0d9Fdqbc+Zod9EhEpYhtzNtXruJC5JOK8s/bMjTUfiP+3kL6O4uPD0KfDSbxJFDyzaKnz6luC5byxaLceYCADH5g5BoA+3vgR/wUv+Bn7TPxGj8J+B/iZ4f8Q+IJ4ZLq0s4jJC2pxJ997UyKq3CKOS8RdR1yMVm/EL/grD+zr8K/iDfeFfEHxi8HaXr2l30mmahazXJP8AZdwjqjC6YDZbgM6jMrKpPANeW/8ABULxF4Z8QfDX9n2HwXeaLfeMNU+Jnhi6+Hq6VLC8z26XcT3ktr5ZObMaYLnzmQFPJYg5VgtYv7D/AIw+GfhLwb+2dc+Ob7wlaaDZ/FzxLN4r/tKSFVjsDb2wAug3Plsm/buBBBIXJoA+sNV8dfZPj9ounyeNtCtLG60G91D/AIRya1X7bfrHNbj7dHcGT5YYllCOgQgmaNty4w3A/C3/AIKj/AP42eJdU0nwn8UPDuuX2i2N1qVyIPO2SWttj7RNDIyhJkTjLRM4B446V8c/sJfDW68R+FP2aPCXxCXUtPt9W/Z78T6ZeJezNaXlrpk15piwLIzcxOtk8YJb5kIGeQa9s/Zh8W+Pf2LfjL8G/gH4t1vwF8SPAvirQ7ux8DeJdJtxpet2sGnWiyAXloheGWI24RPtNsUBk8sMieYu4A9A/Ym/4KeeBP2rP2bte+IV54g8O6Pb+FLnUTrh+1SR2ul2kF5dRQTySzIgw9vbrKwH3Sx45ArtP2eP+Chnwb/av8U3mh/D3x/pHiLWrO2F61gqS29y9uTtE8Ucyo0sJPHmxhkB/i5FfB9x4i0G4/4JW/DuTxJdW954B8P/AB8kj8fLI4NvZWMfiy+dhegMQkCXT2ryhztVCSwx8tfTX7cuteGdY/a7/ZPtdJmtLvx9H41n1CwNmQ91FoJ0e+F/K20nbaEta5Zh5ZfyQDuoA+wlOVFFNjOY1+nrmigB1Vb2zS8ikhkWNo5AQVYcFcYNWqYc5/hqKiTjyyV09H8w30Pzy/bD/Zlm+B/jFtQ0yJn8M6k5+zsq5FlKcsYm/DJUnjHHavFwcjjGO2Dmv1d8a+CdN+Ifhq80nVLSO8sb6MxyxOoIbnjr3B5B9a/Pz9pv9lbVvgLrUl1AJL/w1O5Fvecs1uSfljl9HwQAzZDdeDX8leKHhnVy6vLM8uhzUXq4r7P/AAGeTi8NKL54nktFBXYcbSuOMHtRX4d12scEdrh2+nT2rb+HXxG1f4XeLrfWtEuWtb60IBxykoJzscd0YdffmsSg84/2entXThcVVw9RVqEnGSd7rdehUZNO6P0j/Z6/af0P48eHYngmSz1iFQLuwkcCSNsfeTP3kPY+nWvUVbI5r8kbG+uNLv4bq1uJre4gO9JY3KPGfYjkfhXeWH7VnxG06y+zw+MNY8sjA81xI4HszKT+Oa/ovh/x4pww8aWa0nKaVrxtZ+t+p6cMckvfR+jXjHxxpfgHQ5tS1i+t9PsbcEvNPIFC+gHqT2A5r4I/aw/auv8A4860+n2DXFr4Xs5MwwMNsl4/Z5B2yOVXpg8815l4s+IeveO7tZta1jUNWmjzt+0zs6x/QE4B+gFY4+6PQDA+h618bxx4tYrO6TweEh7Gi9037z+7oc9bGOa5UrAeOP7uQPx60UUV+PR1Vnp5HE1bUK2fh78P9V+KPi6z0PRrdri+vG2r8vyQjPMjnsoH60vw++HOsfFLxRb6PotnLdXlwwGVB2RL3Zz0AH61+g37M37Mul/s+eGtqiK+12+jBvb0jlj18tPSMenfGTz0/SPD/wAP8ZxBiY1aycKEX7z6tdl6nVh8PKpK72Og+BPwW034GfD+10XT/nZR5l1cEYe6mIGXJ/AAegAHQV3AGBTVORTh0r+1MDgaGDoRwmGjywirJdj2krKyDbRRRXYM5z4pfCTwr8bvCE/h/wAZ+G9B8WaDdOkkum6zYRX1rI6NuRjHIrLuVgCDjIIyK5j4KfsefCn9nC/vrz4f/DfwP4Ku9ThW3vJdD0W2sXuo1OQshiRSyg84ORXpVFAHmUX7HnwrtvhlrHguL4c+B4/CGvXUl7qGiLoduunXlw+0tM8GzYXLIp3AZyoPYVL8Iv2R/hd8BfCeraH4K+Hvg3wxouvApqlnpmkQQRampUptnVUHmDaxXD54JHrXpG0Y6UY/SgDxjxH/AME9PgT4w8MaDoupfB34aX2keFmlOkWcvhy1MGmCV/MlEK+XiNXf5mVQAx5Ir0j4efDHw38JvDv9j+FtB0bw5pIledbHS7GOztkdzudhHGqqCx5JxknrW/tHpRQBx3xj+Afgf9ojw2uj+PPB/hjxppcbl0tNa02K/hibGCyiRTtbHGRzWV8KP2S/hh8C/A2qeGvBvw98G+GfD+ubv7S0/TtIgt7fUtybG+0KqAS/Idvz5O3jpXoxUHtRjNAHk/wf/YZ+DfwC1SG+8E/C34f+F7+CR5Y7vTNBtra5iLo0bbZUQMoMbMmAcbWK9Diu90v4d6Do3jLUvElnoul23iDWoILa/wBSis0ju72KHd5KSygb3WPe+1WJC72xjJrbK7hyKKAPK/il+xR8Ifjd45h8SeMvhl4F8U6/DGkKajqeh291cOiHKI7shLKp5UNkA9K72fwLo914g0rVptL0+TVNFhmt9PvGtkM1lFLs81I3xlFfyotyqQG8tM52jGviigDH0nwJo+heJ9W1uz0nTrTWdeWFdSvYrdEuL8QqVi81wN0mxSQu4naCQMZrhfil+xX8Ifjh8QLPxT4y+GPgPxV4isEWKDUtV0K3u7pEUkqu+RCWVSSVBOFzxXqWKAMCgDldC+CPg3wxdeH7jTvCvh3T5vClpNp+ivb6fFG2kW02zzYLcqv7qN/Lj3KmA3lrkHaK0NI+H+h+H/FWr65Y6PpdnrXiAwtql9BbpHcaiYU8uIzSAbpCifIpYnavAwOK2gNoooA5fSfgx4R0KXSnsvDOg2r6De3Wo6a0VhEhsbm6837TNEQv7uSXzpd7Lgv5r7idxzo2/gXR7TxldeIodK0+PXr60isLnUFt0F1cW8TO8cLyY3MiNJIyqThTIxABY516KAPP/HP7LXw2+JngzV/DviDwH4R1rQte1L+2dQ0+90mGa3vb4kE3UiMpVpsqp8wjdwOeKm+Ef7Mnw6+AljcW/gnwL4R8JwXlvHaXCaRpEFmLmJN21ZDGgLgbm+9n7zHua7ojJooA8ztf2OfhTYfCvVPAkPw38DxeCtbu3v77QV0K3/s25uH2kytBs8vfuRW3bcgqCOgrpvDfwf8AC/hCfUptL8O6Lp82sWtvZX8kNnGr3sFvGYoI5WAzIscZKKHJCqSBgEium2j0oxzQB5X8Kf2KPhH8C/GVz4g8F/DPwN4V1y6R4pL/AErRLe1uBG7FnRHRAVVmOSq4BPavDf2bf+CXHgm3+IXxV8VfFT4afDnxP4i8QfE7VvFOhahe6Xb6hdQWE4tvIDyMhYMHhZwhJCEjFfYwGBTQig/dX16fhQBi6n8ONA1zW4dTvdF0m71GGym01Lma1SSZLWYqZYAxGRG5RCyA7WKrkHArz/4I/sK/Bv8AZw8aXniPwH8MfA/hLXb5Wil1DS9GgtrgRNgtGjqgKIxAJRSF4HHAr1wDAo2jOcc+tAHC6R+zh4B0LUfFd5Y+C/CtndeO12+I3g0qFP7e4ZT9qAUCfIZhmTcSGPqaofBb9kT4V/s5areX/gL4d+DfB99fRfZ7i50nSIbWaWINvERdVB8sNyE+6D0Ar0nbntRjmgAU/KP6UUUUAFG3miigBCoI6CqWs6La69p89reQRXVrcIY5I5FDI6nggir1NK557/Ss61OFSLhUV09+wb6Hx3+0L/wTskt3m1bwGytGcs2kSOF2d/3Lnj/gLdhwRXy3rvhvUPDOsTWOo2dxY3kJIe2lhdGXHB4POPfJr9aNmTXL/Eb4QeG/ivpzWuvaPZ6kn8DSxAyRn1Vuqn3FfiHFvgvgswm8TlbVGb+z9l+fdHDVwMXrE/LEHcOOnbBzRX2X8Q/+CY2m6g8s/hnXLrTZGJYW98v2iPk9A4IYAe4Y/WvIPFP/AAT8+I/hws1vY6frES85s7wBj/wGQKT+Br8MzXwv4jwLaqYb2i7xd0efLC1Iva54mDijNd5c/sxfESzOH8Ga6T0Oy33fyY1DF+zX8QJn2jwb4i3Hpm0IA/WvlJZDmkXyvDzT7ckn+hPs5/ynEnmivVPDX7FPxL8TSDZ4dksV3YZ72ZYR9dpyT+FepeBv+CY+rXciSeI/EFnZxdTDYRGWQ+29sAH/AICa93LvD3iHHNexw0l5yVl+JUaFSWiR8sofMlWNeWY4Cj5mJ9hjNe0fAf8AYi8VfGGSC8voZNB0N8P9puV/fXC9f3UXB5/vNtHpur66+FH7IXgn4RtFNZ6WL6/ix/pt9iefPqBjav4AYr1FEURquOPSv2bhfwNp05xxOdzTt9iP6v8ARHZSwCTvM474P/A3w/8ABDw8LDQ7JYtwHnXMgDXF0cdXbHP06DsBXaBQUxwRRtye1OUbRX9BYHB0MLSVDDwUYrZJWR6UUkrIMUUUV2AFFFFABRRRQAUUUUAFFFFABRRRQAUUUUAFFFFABRRRQAUUUUAFFFFABRRRQAUUUUAFFFFABRRRQAUUUUAFFFFABRRRQAUUUUAFGM0UUAGKNo9KKKAG7OaXZ9aKKAAIB2pcUUUABUEdKMYooo8wDHNFFFABRRRQAUUUUAFFFFABRRRQAUUUUAFFFFABRRRQAUUUUAFFFFABRRRQAUUUUAFFFFABRRRQAUUUUAFFFFABRRRQAUUUUAf/2Q==;" parent="1" vertex="1">
                    <mxGeometry x="974" y="121.77" width="101" height="38.23" as="geometry"/>
                </mxCell>
                <mxCell id="87" value="&lt;font style=&quot;font-size: 14px&quot;&gt;Technology make it simple&lt;/font&gt;" style="text;strokeColor=none;fillColor=none;html=1;fontSize=24;fontStyle=1;verticalAlign=middle;align=center;" parent="1" vertex="1">
                    <mxGeometry x="1075" y="175" width="150" height="90" as="geometry"/>
                </mxCell>
                <mxCell id="89" value="&lt;b&gt;Aloita&lt;/b&gt;" style="html=1;shadow=0;dashed=0;shape=mxgraph.bootstrap.rrect;rSize=5;strokeColor=none;strokeWidth=1;fillColor=#4ECCC4;fontColor=#FFFFFF;whiteSpace=wrap;align=center;verticalAlign=middle;spacingLeft=0;fontStyle=0;fontSize=16;spacing=5;" parent="1" vertex="1">
                    <mxGeometry x="1155.5" y="567.13" width="121" height="40" as="geometry"/>
                </mxCell>
                <mxCell id="91" value="&lt;span style=&quot;background-color: rgb(3 , 3 , 3)&quot;&gt;Veden Lämpötila&lt;/span&gt;" style="shape=ext;double=1;rounded=1;whiteSpace=wrap;html=1;shadow=1;strokeColor=#FFFFFF;fillColor=#FFFFFF;align=center;" parent="1" vertex="1">
                    <mxGeometry x="960" y="350" width="120" height="39" as="geometry"/>
                </mxCell>
                <mxCell id="93" value="&lt;span style=&quot;background-color: rgb(3 , 3 , 3)&quot;&gt;Aika&lt;/span&gt;" style="shape=ext;double=1;rounded=1;whiteSpace=wrap;html=1;shadow=1;strokeColor=#FFFFFF;fillColor=#FFFFFF;align=center;" parent="1" vertex="1">
                    <mxGeometry x="960" y="290" width="120" height="39" as="geometry"/>
                </mxCell>
                <UserObject label="%date{ddd mmm dd yyyy HH:MM:ss}%" placeholders="1" id="102">
                    <mxCell style="text;html=1;strokeColor=none;fillColor=none;align=center;verticalAlign=middle;whiteSpace=wrap;overflow=hidden;shadow=1;" parent="1" vertex="1">
                        <mxGeometry x="1190" y="125.88999999999999" width="160" height="20" as="geometry"/>
                    </mxCell>
                </UserObject>
                <mxCell id="107" value="" style="dashed=0;verticalLabelPosition=bottom;verticalAlign=top;align=center;shape=mxgraph.gmdl.slider2;barPos=50;strokeColor=#3F51B5;opacity=100;strokeWidth=2;fillColor=#3F51B5;handleSize=20;shadow=0;" parent="1" vertex="1">
                    <mxGeometry x="1215.5" y="299.5" width="109" height="20" as="geometry"/>
                </mxCell>
                <mxCell id="108" value="&lt;span style=&quot;background-color: rgb(3 , 3 , 3)&quot;&gt;00:00&lt;/span&gt;" style="shape=ext;double=1;rounded=1;whiteSpace=wrap;html=1;shadow=1;strokeColor=#FFFFFF;fillColor=#FFFFFF;" parent="1" vertex="1">
                    <mxGeometry x="1100" y="290" width="95" height="39" as="geometry"/>
                </mxCell>
                <mxCell id="110" value="" style="dashed=0;verticalLabelPosition=bottom;verticalAlign=top;align=center;shape=mxgraph.gmdl.slider2;barPos=50;strokeColor=#3F51B5;opacity=100;strokeWidth=2;fillColor=#3F51B5;handleSize=20;shadow=0;" parent="1" vertex="1">
                    <mxGeometry x="1215" y="359.5" width="109" height="20" as="geometry"/>
                </mxCell>
                <mxCell id="121" value="&lt;span style=&quot;background-color: rgb(3 , 3 , 3)&quot;&gt;Status:&lt;span style=&quot;white-space: pre&quot;&gt;&lt;span style=&quot;white-space: pre&quot;&gt;&#9;&lt;/span&gt;&lt;span style=&quot;white-space: pre&quot;&gt;&#9;&lt;/span&gt;&lt;span style=&quot;white-space: pre&quot;&gt;&#9;&lt;span style=&quot;white-space: pre&quot;&gt;&#9;&lt;span style=&quot;white-space: pre&quot;&gt;&#9;&lt;/span&gt;&lt;span style=&quot;white-space: pre&quot;&gt;&#9;&lt;/span&gt;&lt;span style=&quot;white-space: pre&quot;&gt;&#9;&lt;/span&gt;&lt;span style=&quot;white-space: pre&quot;&gt;&#9;&lt;/span&gt;&lt;span style=&quot;white-space: pre&quot;&gt;&#9;&lt;/span&gt;&lt;/span&gt;&lt;span style=&quot;white-space: pre&quot;&gt;&#9;&lt;/span&gt;&lt;/span&gt;O&lt;/span&gt;ff/Cleaning&lt;/span&gt;" style="shape=ext;double=1;rounded=1;whiteSpace=wrap;html=1;shadow=1;strokeColor=#FFFFFF;fillColor=#FFFFFF;align=left;" parent="1" vertex="1">
                    <mxGeometry x="960" y="440" width="380" height="40" as="geometry"/>
                </mxCell>
                <mxCell id="122" value="&lt;b&gt;Reset&lt;/b&gt;" style="html=1;shadow=0;dashed=0;shape=mxgraph.bootstrap.rrect;rSize=5;strokeColor=none;strokeWidth=1;fillColor=#4ECCC4;fontColor=#FFFFFF;whiteSpace=wrap;align=center;verticalAlign=middle;spacingLeft=0;fontStyle=0;fontSize=16;spacing=5;" parent="1" vertex="1">
                    <mxGeometry x="1025.5" y="567.13" width="121" height="40" as="geometry"/>
                </mxCell>
                <mxCell id="124" value="&lt;span style=&quot;font-size: 14px&quot;&gt;&lt;b&gt;&lt;a href=&quot;Palaute&quot;&gt;Palaute&lt;/a&gt;&lt;/b&gt;&lt;/span&gt;" style="html=1;shadow=0;dashed=0;shape=mxgraph.bootstrap.rrect;rSize=5;strokeColor=none;strokeWidth=1;fillColor=#4ECCC4;fontColor=#FFFFFF;whiteSpace=wrap;align=center;verticalAlign=middle;spacingLeft=0;fontStyle=0;fontSize=16;spacing=5;rotation=0;" parent="1" vertex="1">
                    <mxGeometry x="1271" y="145.89" width="70" height="20" as="geometry"/>
                </mxCell>
                <UserObject label="%date{ddd mmm dd yyyy HH:MM:ss}%" placeholders="1" id="125">
                    <mxCell style="text;html=1;strokeColor=none;fillColor=none;align=center;verticalAlign=middle;whiteSpace=wrap;overflow=hidden;shadow=1;" parent="1" vertex="1">
                        <mxGeometry x="542" y="125.88999999999999" width="160" height="20" as="geometry"/>
                    </mxCell>
                </UserObject>
                <mxCell id="126" value="&lt;span style=&quot;font-size: 14px&quot;&gt;&lt;b&gt;&lt;a href=&quot;Palaute&quot;&gt;Palaute&lt;/a&gt;&lt;/b&gt;&lt;/span&gt;" style="html=1;shadow=0;dashed=0;shape=mxgraph.bootstrap.rrect;rSize=5;strokeColor=none;strokeWidth=1;fillColor=#4ECCC4;fontColor=#FFFFFF;whiteSpace=wrap;align=center;verticalAlign=middle;spacingLeft=0;fontStyle=0;fontSize=16;spacing=5;rotation=0;" parent="1" vertex="1">
                    <mxGeometry x="623" y="145.89" width="70" height="20" as="geometry"/>
                </mxCell>
                <mxCell id="133" value="&lt;span style=&quot;background-color: rgb(3 , 3 , 3)&quot;&gt;0&amp;nbsp;&lt;/span&gt;&lt;span style=&quot;color: rgb(32 , 33 , 36) ; font-family: &amp;#34;arial&amp;#34; , sans-serif ; font-size: 14px ; text-align: left ; background-color: rgb(255 , 255 , 255)&quot;&gt;°C&lt;/span&gt;" style="shape=ext;double=1;rounded=1;whiteSpace=wrap;html=1;shadow=1;strokeColor=#FFFFFF;fillColor=#FFFFFF;" parent="1" vertex="1">
                    <mxGeometry x="1100" y="350" width="95" height="39" as="geometry"/>
                </mxCell>
            </root>
        </mxGraphModel>
    </diagram>
</mxfile>